<svg fill="none" height="100%" width="100%" viewBox="0 0 800 800" xmlns:xlink="http://www.w3.org/1999/xlink" xmlns="http://www.w3.org/2000/svg"><defs><clipPath id="i0"><rect height="800" width="800" y="0" x="0" /></clipPath><g id="i1"><g transform="matrix(2.258,0,0,2.258,473.275,118.371)" id="i2"><g id="i3" transform="matrix(1,0,0,1,71.785,102.197)"><path fill="#000000" fill-opacity="0.1" d="M11.139,37.464C11.139,37.464,-71.491,-10.554,-71.491,-10.554C-71.491,-10.554,-11.139,-37.464,-11.139,-37.464C-11.139,-37.464,71.491,10.555,71.491,10.555C71.491,10.555,11.139,37.464,11.139,37.464Z" /></g><g id="i4" transform="matrix(1,0,0,1,102.852,93.966)"><path fill="#d72727" d="M6.096,-45.697C6.096,-45.697,11.831,-3.398,11.831,-3.398C11.831,-3.398,19.948,13.876,19.948,13.876C19.948,13.876,19.971,22.648,19.971,22.648C19.971,22.648,8.766,29.118,8.766,29.118C8.766,29.118,4.992,27.663,4.992,27.663C4.992,27.663,-4.987,33.424,-4.987,33.424C-4.987,33.424,-8.742,39.227,-8.742,39.227C-8.742,39.227,-19.948,45.697,-19.948,45.697C-19.948,45.697,-101.682,-2.271,-101.682,-2.271C-101.682,-2.271,-94.576,-37.261,-94.576,-37.261C-94.576,-37.261,-89.106,-86.415,-89.106,-86.415C-89.106,-86.415,6.096,-45.697,6.096,-45.697Z" /></g><g id="i5" transform="matrix(1,0,0,1,41.577,111.266)"><path fill="#ee3a24" d="M41.327,28.396C41.327,28.396,-41.302,-19.623,-41.302,-19.623C-41.302,-19.623,-41.327,-28.396,-41.327,-28.396C-41.327,-28.396,41.303,19.623,41.303,19.623C41.303,19.623,41.327,28.396,41.327,28.396Z" /></g><g id="i6" transform="matrix(1,0,0,1,45.561,93.592)"><path fill="#f2755c" d="M37.319,37.297C37.319,37.297,-45.311,-10.722,-45.311,-10.722C-45.311,-10.722,-37.319,-37.297,-37.319,-37.297C-37.319,-37.297,45.311,10.722,45.311,10.722C45.311,10.722,37.319,37.297,37.319,37.297Z" /></g><g id="i7" transform="matrix(1,0,0,1,52.292,55.921)"><path fill="#ee3a24" d="M38.58,48.393C38.58,48.393,-44.05,0.374,-44.05,0.374C-44.05,0.374,-38.58,-48.393,-38.58,-48.393C-38.58,-48.393,44.05,-0.374,44.05,-0.374C44.05,-0.374,38.58,48.393,38.58,48.393Z" /></g><g id="i8" transform="matrix(1,0,0,1,61.329,27.898)"><path fill="#f2755c" d="M35.013,27.648C35.013,27.648,-47.617,-20.37,-47.617,-20.37C-47.617,-20.37,-35.012,-27.648,-35.012,-27.648C-35.012,-27.648,47.617,20.371,47.617,20.371C47.617,20.371,35.013,27.648,35.013,27.648Z" /></g><g id="i9" transform="matrix(1,0,0,1,64.309,77.701)"><path fill="#d72727" d="M7.885,-26.952C7.885,-26.952,3.393,13.142,3.393,13.142C3.393,13.142,-1.816,30.471,-1.816,30.471C-1.816,30.471,-7.885,26.952,-7.885,26.952C-7.885,26.952,-2.682,9.635,-2.682,9.635C-2.682,9.635,1.816,-30.471,1.816,-30.471C1.816,-30.471,7.885,-26.952,7.885,-26.952Z" /></g><g id="i10" transform="matrix(1,0,0,1,34.627,60.495)"><path fill="#d72727" d="M7.885,-26.952C7.885,-26.952,3.394,13.142,3.394,13.142C3.394,13.142,-1.815,30.471,-1.815,30.471C-1.815,30.471,-7.885,26.952,-7.885,26.952C-7.885,26.952,-2.681,9.635,-2.681,9.635C-2.681,9.635,1.817,-30.471,1.817,-30.471C1.817,-30.471,7.885,-26.952,7.885,-26.952Z" /></g><g id="i11" transform="matrix(1,0,0,1,59.459,105.107)"><path fill="#ee3a24" d="M-3.034,-0.449C-3.034,-0.449,1.498,-3.065,1.498,-3.065C1.498,-3.065,3.034,3.065,3.034,3.065C3.034,3.065,-3.034,-0.449,-3.034,-0.449Z" /></g><g id="i12" transform="matrix(1,0,0,1,60.724,103.965)"><path fill="#ee3a24" d="M-4.299,0.693C-4.299,0.693,4.299,-4.207,4.299,-4.207C4.299,-4.207,1.769,4.207,1.769,4.207C1.769,4.207,-4.299,0.693,-4.299,0.693Z" /></g><g id="i13" transform="matrix(1,0,0,1,31.042,86.759)"><path fill="#ee3a24" d="M-4.299,0.693C-4.299,0.693,4.299,-4.207,4.299,-4.207C4.299,-4.207,1.769,4.207,1.769,4.207C1.769,4.207,-4.299,0.693,-4.299,0.693Z" /></g></g><g transform="matrix(2.258,0,0,2.258,142.437,122.91)" id="i14"><g id="i15" transform="matrix(1,0,0,1,126.175,173.462)"><path fill="#000000" fill-opacity="0.1" fill-rule="evenodd" d="M99.467,8.74C99.467,8.74,89.208,9.415,89.208,9.415C89.208,9.415,-6.852,-46.546,-6.852,-46.546C-6.852,-46.546,6.686,-51.503,6.686,-51.503C6.686,-51.503,-12.773,-55.496,-12.773,-55.496C-12.773,-55.496,-50.808,-52.992,-50.808,-52.992C-50.808,-52.992,-41.984,-48.404,-41.984,-48.404C-41.984,-48.404,-33.237,-49.211,-33.237,-49.211C-33.237,-49.211,-42.943,-40.189,-42.943,-40.189C-42.943,-40.189,-52.947,-36.651,-52.947,-36.651C-52.947,-36.651,-56.4,-38.727,-56.4,-38.727C-56.4,-38.727,-82.396,-26.241,-82.396,-26.241C-82.396,-26.241,-118.926,-13.327,-118.926,-13.327C-118.926,-13.327,-110.102,-8.74,-110.102,-8.74C-110.102,-8.74,-76.487,-21.048,-76.487,-21.048C-76.487,-21.048,24.807,39.776,24.807,39.776C24.807,39.776,-6.686,50.909,-6.686,50.909C-6.686,50.909,2.137,55.496,2.137,55.496C2.137,55.496,118.926,12.733,118.926,12.733C118.926,12.733,99.467,8.74,99.467,8.74ZM100.418,13.047C100.418,13.047,97.32,14.142,97.32,14.142C97.32,14.142,96.124,13.443,96.124,13.443C96.124,13.443,100.418,13.047,100.418,13.047ZM-11.822,-51.189C-11.822,-51.189,-13.689,-50.529,-13.689,-50.529C-13.689,-50.529,-14.411,-50.951,-14.411,-50.951C-14.411,-50.951,-11.822,-51.189,-11.822,-51.189ZM-18.529,-50.57C-18.529,-50.57,-27.667,-46.181,-27.667,-46.181C-27.667,-46.181,-23.384,-50.121,-23.384,-50.121C-23.384,-50.121,-18.529,-50.57,-18.529,-50.57ZM-45.721,-32.314C-45.721,-32.314,-37.678,-35.258,-37.678,-35.258C-37.678,-35.258,66.077,25.186,66.077,25.186C66.077,25.186,55.98,28.755,55.98,28.755C55.98,28.755,-45.721,-32.314,-45.721,-32.314Z" /></g><g id="i16" transform="matrix(1,0,0,1,64.086,62.815)"><path fill="#bbbdbf" d="M-11.787,-57.977C-11.787,-57.977,-20.611,-62.565,-20.611,-62.565C-20.611,-62.565,-23.553,-61.948,-23.553,-61.948C-23.553,-61.948,11.788,57.977,11.788,57.977C11.788,57.977,20.611,62.565,20.611,62.565C20.611,62.565,23.553,61.947,23.553,61.947C23.553,61.947,-11.787,-57.977,-11.787,-57.977Z" /></g><g id="i17" transform="matrix(1,0,0,1,62.616,63.124)"><path fill="#a6a8ab" d="M-13.258,-57.668C-13.258,-57.668,-22.082,-62.256,-22.082,-62.256C-22.082,-62.256,13.259,57.668,13.259,57.668C13.259,57.668,22.082,62.256,22.082,62.256C22.082,62.256,-13.258,-57.668,-13.258,-57.668Z" /></g><g id="i18" transform="matrix(1,0,0,1,48.778,100.901)"><path fill="#bbbdbf" d="M23.125,-9.297C23.125,-9.297,-21.096,16.147,-21.096,16.147C-21.096,16.147,-23.125,9.297,-23.125,9.297C-23.125,9.297,21.096,-16.147,21.096,-16.147C21.096,-16.147,23.125,-9.297,23.125,-9.297Z" /></g><g id="i19" transform="matrix(1,0,0,1,46.851,97.083)"><path fill="#d0d2d3" d="M23.044,-12.332C23.044,-12.332,-21.177,13.112,-21.177,13.112C-21.177,13.112,-23.044,12.332,-23.044,12.332C-23.044,12.332,21.177,-13.112,21.177,-13.112C21.177,-13.112,23.044,-12.332,23.044,-12.332Z" /></g><g id="i20" transform="matrix(1,0,0,1,96.502,54.653)"><path fill="#a6a8ab" d="M-54.612,-21.955C-54.612,-21.955,49.819,38.133,49.819,38.133C49.819,38.133,54.612,21.955,54.612,21.955C54.612,21.955,-49.819,-38.133,-49.819,-38.133C-49.819,-38.133,-54.612,-21.955,-54.612,-21.955Z" /></g><g id="i21" transform="matrix(1,0,0,1,101.052,45.636)"><path fill="#bbbdbf" d="M-54.421,-29.123C-54.421,-29.123,50.01,30.965,50.01,30.965C50.01,30.965,54.421,29.122,54.421,29.122C54.421,29.122,-50.011,-30.965,-50.011,-30.965C-50.011,-30.965,-54.421,-29.123,-54.421,-29.123Z" /></g><g id="i22" transform="matrix(1,0,0,1,28.557,82.956)"><path fill="#bbbdbf" d="M20.801,-77.5C20.801,-77.5,11.977,-82.088,11.977,-82.088C11.977,-82.088,9.036,-81.471,9.036,-81.471C9.036,-81.471,-20.801,77.5,-20.801,77.5C-20.801,77.5,-11.977,82.088,-11.977,82.088C-11.977,82.088,-9.036,81.471,-9.036,81.471C-9.036,81.471,20.801,-77.5,20.801,-77.5Z" /></g><g id="i23" transform="matrix(1,0,0,1,27.087,83.265)"><path fill="#d0d2d3" d="M19.33,-77.192C19.33,-77.192,10.507,-81.779,10.507,-81.779C10.507,-81.779,-19.33,77.191,-19.33,77.191C-19.33,77.191,-10.507,81.779,-10.507,81.779C-10.507,81.779,19.33,-77.192,19.33,-77.192Z" /></g><g id="i24" transform="matrix(1,0,0,1,175.818,126.729)"><path fill="#bbbdbf" d="M-11.787,-57.977C-11.787,-57.977,-20.611,-62.565,-20.611,-62.565C-20.611,-62.565,-23.553,-61.948,-23.553,-61.948C-23.553,-61.948,11.788,57.976,11.788,57.976C11.788,57.976,20.611,62.565,20.611,62.565C20.611,62.565,23.553,61.947,23.553,61.947C23.553,61.947,-11.787,-57.977,-11.787,-57.977Z" /></g><g id="i25" transform="matrix(1,0,0,1,174.348,127.038)"><path fill="#a6a8ab" d="M-13.258,-57.668C-13.258,-57.668,-22.082,-62.256,-22.082,-62.256C-22.082,-62.256,13.259,57.667,13.259,57.667C13.259,57.667,22.082,62.256,22.082,62.256C22.082,62.256,-13.258,-57.668,-13.258,-57.668Z" /></g><g id="i26" transform="matrix(1,0,0,1,160.51,164.815)"><path fill="#bbbdbf" d="M23.125,-9.296C23.125,-9.296,-21.096,16.147,-21.096,16.147C-21.096,16.147,-23.125,9.297,-23.125,9.297C-23.125,9.297,21.096,-16.147,21.096,-16.147C21.096,-16.147,23.125,-9.296,23.125,-9.296Z" /></g><g id="i27" transform="matrix(1,0,0,1,163.353,165.126)"><path fill="#d0d2d3" d="M18.275,-16.461C18.275,-16.461,-25.946,8.982,-25.946,8.982C-25.946,8.982,-18.274,16.461,-18.274,16.461C-18.274,16.461,25.946,-8.983,25.946,-8.983C25.946,-8.983,18.275,-16.461,18.275,-16.461Z" /></g><g id="i28" transform="matrix(1,0,0,1,140.29,146.87)"><path fill="#bbbdbf" d="M20.801,-77.5C20.801,-77.5,11.977,-82.088,11.977,-82.088C11.977,-82.088,9.035,-81.471,9.035,-81.471C9.035,-81.471,-20.801,77.5,-20.801,77.5C-20.801,77.5,-11.978,82.088,-11.978,82.088C-11.978,82.088,-9.036,81.471,-9.036,81.471C-9.036,81.471,20.801,-77.5,20.801,-77.5Z" /></g><g id="i29" transform="matrix(1,0,0,1,138.819,147.179)"><path fill="#d0d2d3" d="M19.33,-77.192C19.33,-77.192,10.506,-81.779,10.506,-81.779C10.506,-81.779,-19.33,77.191,-19.33,77.191C-19.33,77.191,-10.507,81.779,-10.507,81.779C-10.507,81.779,19.33,-77.192,19.33,-77.192Z" /></g><g id="i30" transform="matrix(1,0,0,1,77.91,154.075)"><path fill="#d66d00" d="M77.66,21.475C77.66,21.475,70.45,60.935,70.45,60.935C70.45,60.935,67.45,61.635,67.45,61.635C67.45,61.635,-77.66,-21.465,-77.66,-21.465C-77.66,-21.465,-70.45,-60.925,-70.45,-60.925C-70.45,-60.925,-67.45,-61.635,-67.45,-61.635C-67.45,-61.635,-58.04,-56.245,-58.04,-56.245C-58.04,-56.245,77.66,21.475,77.66,21.475Z" /></g><g id="i31" transform="matrix(1,0,0,1,76.41,154.43)"><path fill="#f6921e" d="M76.15,21.83C76.15,21.83,71.86,45.33,71.86,45.33C71.86,45.33,68.95,61.28,68.95,61.28C68.95,61.28,46.6,48.48,46.6,48.48C46.6,48.48,16,30.96,16,30.96C16,30.96,-14.86,13.28,-14.86,13.28C-14.86,13.28,-45.68,-4.37,-45.68,-4.37C-45.68,-4.37,-76.15,-21.82,-76.15,-21.82C-76.15,-21.82,-68.95,-61.28,-68.95,-61.28C-68.95,-61.28,-59.53,-55.89,-59.53,-55.89C-59.53,-55.89,-28.71,-38.23,-28.71,-38.23C-28.71,-38.23,2.15,-20.56,2.15,-20.56C2.15,-20.56,32.75,-3.03,32.75,-3.03C32.75,-3.03,63.61,14.641,63.61,14.641C63.61,14.641,76.15,21.83,76.15,21.83Z" /></g><g id="i32" transform="matrix(1,0,0,1,15.495,121.605)"><path fill="#191717" d="M15.235,28.455C15.235,28.455,-15.235,11.005,-15.235,11.005C-15.235,11.005,-8.036,-28.455,-8.036,-28.455C-8.036,-28.455,1.385,-23.065,1.385,-23.065C1.385,-23.065,15.235,28.455,15.235,28.455Z" /></g><g id="i33" transform="matrix(1,0,0,1,70.055,150.795)"><path fill="#191717" d="M22.355,34.595C22.355,34.595,-8.505,16.915,-8.505,16.915C-8.505,16.915,-22.355,-34.595,-22.355,-34.595C-22.355,-34.595,8.505,-16.925,8.505,-16.925C8.505,-16.925,22.355,34.595,22.355,34.595Z" /></g><g id="i34" transform="matrix(1,0,0,1,128.715,183.555)"><path fill="#191717" d="M19.555,16.205C19.555,16.205,16.645,32.155,16.645,32.155C16.645,32.155,-5.705,19.355,-5.705,19.355C-5.705,19.355,-19.555,-32.155,-19.555,-32.155C-19.555,-32.155,11.305,-14.484,11.305,-14.484C11.305,-14.484,19.555,16.205,19.555,16.205Z" /></g><g id="i35" transform="matrix(1,0,0,1,57.174,96.957)"><path fill="#070707" d="M-16.925,-8.487C-16.925,-8.487,-13.925,-9.193,-13.925,-9.193C-13.925,-9.193,16.925,8.48,16.925,8.48C16.925,8.48,13.933,9.193,13.933,9.193C13.933,9.193,-16.925,-8.487,-16.925,-8.487Z" /></g><g id="i36" transform="matrix(1,0,0,1,118.621,132.151)"><path fill="#070707" d="M-16.925,-8.487C-16.925,-8.487,-13.925,-9.193,-13.925,-9.193C-13.925,-9.193,16.925,8.48,16.925,8.48C16.925,8.48,13.932,9.193,13.932,9.193C13.932,9.193,-16.925,-8.487,-16.925,-8.487Z" /></g><g id="i37" transform="matrix(1,0,0,1,91.005,82.647)"><path fill="#d66d00" d="M-79.589,-10.845C-79.589,-10.845,65.518,72.256,65.518,72.256C65.518,72.256,68.518,71.55,68.518,71.55C68.518,71.55,79.589,10.844,79.589,10.844C79.589,10.844,-65.519,-72.256,-65.519,-72.256C-65.519,-72.256,-68.519,-71.55,-68.519,-71.55C-68.519,-71.55,-79.589,-10.845,-79.589,-10.845Z" /></g><g id="i3" transform="matrix(1,0,0,1,89.505,83)"><path fill="#f6921e" d="M78.085,11.2C78.085,11.2,69.925,55.95,69.925,55.95C69.925,55.95,67.015,71.9,67.015,71.9C67.015,71.9,44.665,59.1,44.665,59.1C44.665,59.1,14.065,41.58,14.065,41.58C14.065,41.58,-16.795,23.9,-16.795,23.9C-16.795,23.9,-47.615,6.25,-47.615,6.25C-47.615,6.25,-78.085,-11.2,-78.085,-11.2C-78.085,-11.2,-67.665,-68.33,-67.665,-68.33C-67.665,-68.33,-67.015,-71.9,-67.015,-71.9C-67.015,-71.9,-38.095,-55.34,-38.095,-55.34C-38.095,-55.34,-7.235,-37.66,-7.235,-37.66C-7.235,-37.66,23.355,-20.14,23.355,-20.14C23.355,-20.14,54.215,-2.47,54.215,-2.47C54.215,-2.47,78.085,11.2,78.085,11.2Z" /></g><g id="i5" transform="matrix(1,0,0,1,26.655,51.96)"><path fill="#191717" d="M15.235,37.29C15.235,37.29,-15.235,19.84,-15.235,19.84C-15.235,19.84,-4.815,-37.29,-4.815,-37.29C-4.815,-37.29,15.235,37.29,15.235,37.29Z" /></g><g id="i6" transform="matrix(1,0,0,1,77.49,76.12)"><path fill="#191717" d="M26.08,48.46C26.08,48.46,-4.78,30.78,-4.78,30.78C-4.78,30.78,-26.08,-48.46,-26.08,-48.46C-26.08,-48.46,4.78,-30.78,4.78,-30.78C4.78,-30.78,26.08,48.46,26.08,48.46Z" /></g><g id="i7" transform="matrix(1,0,0,1,136.145,108.88)"><path fill="#191717" d="M23.285,30.07C23.285,30.07,20.375,46.02,20.375,46.02C20.375,46.02,-1.975,33.22,-1.975,33.22C-1.975,33.22,-23.285,-46.02,-23.285,-46.02C-23.285,-46.02,7.575,-28.35,7.575,-28.35C7.575,-28.35,23.285,30.07,23.285,30.07Z" /></g><g id="i8" transform="matrix(1,0,0,1,68.337,36.148)"><path fill="#070707" d="M-16.925,-8.487C-16.925,-8.487,-13.925,-9.193,-13.925,-9.193C-13.925,-9.193,16.925,8.482,16.925,8.482C16.925,8.482,13.933,9.193,13.933,9.193C13.933,9.193,-16.925,-8.487,-16.925,-8.487Z" /></g><g id="i4" transform="matrix(1,0,0,1,129.784,71.342)"><path fill="#070707" d="M-16.925,-8.486C-16.925,-8.486,-13.925,-9.192,-13.925,-9.192C-13.925,-9.192,16.925,8.481,16.925,8.481C16.925,8.481,13.933,9.192,13.933,9.192C13.933,9.192,-16.925,-8.486,-16.925,-8.486Z" /></g><g id="i9" transform="matrix(1,0,0,1,159.471,146.561)"><path fill="#070707" d="M-2.95,8.339C-2.95,8.339,0.05,7.633,0.05,7.633C0.05,7.633,2.95,-8.339,2.95,-8.339C2.95,-8.339,-0.041,-7.611,-0.041,-7.611C-0.041,-7.611,-2.95,8.339,-2.95,8.339Z" /></g><g id="i10" transform="matrix(1,0,0,1,64.623,124.685)"><path fill="#070707" d="M-16.925,-8.487C-16.925,-8.487,-13.925,-9.193,-13.925,-9.193C-13.925,-9.193,16.925,8.48,16.925,8.48C16.925,8.48,13.932,9.193,13.932,9.193C13.932,9.193,-16.925,-8.487,-16.925,-8.487Z" /></g><g id="i11" transform="matrix(1,0,0,1,13.665,95.49)"><path fill="#070707" d="M6.205,2.34C6.205,2.34,3.215,3.05,3.215,3.05C3.215,3.05,-6.205,-2.34,-6.205,-2.34C-6.205,-2.34,-3.205,-3.05,-3.205,-3.05C-3.205,-3.05,6.205,2.34,6.205,2.34Z" /></g><g id="i12" transform="matrix(1,0,0,1,126.09,159.877)"><path fill="#070707" d="M-16.925,-8.487C-16.925,-8.487,-13.925,-9.193,-13.925,-9.193C-13.925,-9.193,16.925,8.482,16.925,8.482C16.925,8.482,13.933,9.193,13.933,9.193C13.933,9.193,-16.925,-8.487,-16.925,-8.487Z" /></g><g id="i13" transform="matrix(1,0,0,1,148.319,207.371)"><path fill="#070707" d="M-2.95,8.339C-2.95,8.339,0.05,7.633,0.05,7.633C0.05,7.633,2.95,-8.339,2.95,-8.339C2.95,-8.339,-0.041,-7.611,-0.041,-7.611C-0.041,-7.611,-2.95,8.339,-2.95,8.339Z" /></g></g><g transform="matrix(2.258,0,0,2.258,10.543,526.755)" id="i38"><g id="i19" transform="matrix(1,0,0,1,203.474,94.1)"><path fill="#000000" fill-opacity="0.1" d="M29.976,-1.426C31.839,-0.351,31.695,1.481,29.958,2.565C29.566,2.81,29.156,3.031,28.757,3.263C26.715,4.45,24.674,5.637,22.632,6.822C17.383,9.873,12.203,13.044,6.885,15.973C5.983,16.471,3.631,17.366,1.245,17.595C-1.503,17.858,-4.177,18.023,-6.477,16.695C-10.977,14.097,-13.064,12.388,-17.565,9.789C-21.685,7.41,-25.835,5.077,-29.927,2.651C-30.877,2.089,-31.838,1.203,-31.444,-0.007C-31.175,-0.833,-30.401,-1.274,-29.695,-1.684C-28.011,-2.662,-26.329,-3.64,-24.645,-4.618C-24.645,-4.618,-8.648,-13.914,-8.648,-13.914C-7.064,-14.834,-5.485,-15.765,-3.896,-16.676C-1.677,-17.948,1.127,-18.023,3.383,-16.779C12.072,-11.984,20.588,-6.846,29.182,-1.884C29.447,-1.731,29.711,-1.579,29.976,-1.426Z" /></g><g id="i20" transform="matrix(1,0,0,1,216.41,100.395)"><path fill="#d72727" d="M13.386,-9.738C13.381,-9.72,13.377,-9.703,13.37,-9.684C13.32,-9.538,13.243,-9.391,13.15,-9.25C13.133,-9.224,13.116,-9.198,13.097,-9.173C12.996,-9.031,12.873,-8.894,12.728,-8.763C12.637,-8.681,12.522,-8.607,12.414,-8.531C12.315,-8.46,12.23,-8.384,12.116,-8.319C12.116,-8.319,-13.455,6.542,-13.455,6.542C-13.455,6.542,-13.466,10.216,-13.466,10.216C-13.466,10.216,12.106,-4.643,12.106,-4.643C12.125,-4.655,12.143,-4.667,12.162,-4.677C12.254,-4.733,12.321,-4.797,12.403,-4.855C12.511,-4.932,12.627,-5.008,12.718,-5.09C12.726,-5.096,12.738,-5.102,12.746,-5.109C12.855,-5.21,12.951,-5.314,13.035,-5.421C13.055,-5.446,13.069,-5.472,13.087,-5.499C13.106,-5.524,13.122,-5.551,13.139,-5.576C13.167,-5.618,13.199,-5.657,13.223,-5.699C13.272,-5.787,13.314,-5.876,13.348,-5.966C13.353,-5.98,13.355,-5.996,13.36,-6.009C13.366,-6.028,13.37,-6.046,13.375,-6.063C13.393,-6.119,13.412,-6.174,13.424,-6.23C13.442,-6.32,13.452,-6.41,13.454,-6.5C13.455,-6.513,13.455,-6.528,13.455,-6.543C13.455,-6.543,13.466,-10.216,13.466,-10.216C13.465,-10.055,13.435,-9.896,13.386,-9.738Z" /></g><g id="i21" transform="matrix(1,0,0,1,186.094,100.775)"><path fill="#ee3a24" d="M16.861,6.162C16.584,6.322,16.272,6.45,15.949,6.562C15.834,6.601,15.715,6.636,15.596,6.669C15.443,6.712,15.289,6.753,15.13,6.785C14.941,6.824,14.75,6.859,14.555,6.884C14.51,6.89,14.466,6.897,14.421,6.902C14.161,6.93,13.898,6.943,13.633,6.945C13.591,6.946,13.549,6.946,13.507,6.946C13.247,6.944,12.988,6.931,12.731,6.903C12.693,6.899,12.653,6.895,12.615,6.891C12.36,6.86,12.108,6.817,11.863,6.763C11.819,6.753,11.776,6.741,11.732,6.73C11.51,6.676,11.296,6.61,11.089,6.535C11.049,6.521,11.007,6.51,10.968,6.495C10.719,6.398,10.481,6.289,10.261,6.162C10.261,6.162,-15.477,-8.698,-15.477,-8.698C-16.164,-9.095,-16.593,-9.587,-16.764,-10.103C-16.821,-10.275,-16.849,-10.448,-16.848,-10.623C-16.848,-10.623,-16.859,-6.948,-16.859,-6.948C-16.861,-6.251,-16.404,-5.552,-15.488,-5.024C-15.488,-5.024,10.251,9.837,10.251,9.837C10.459,9.957,10.683,10.063,10.917,10.156C10.931,10.161,10.944,10.165,10.958,10.17C10.997,10.184,11.038,10.196,11.078,10.211C11.211,10.258,11.342,10.307,11.481,10.347C11.559,10.368,11.641,10.386,11.721,10.405C11.765,10.416,11.809,10.428,11.854,10.437C11.892,10.446,11.928,10.457,11.967,10.466C12.12,10.497,12.276,10.524,12.432,10.546C12.489,10.555,12.547,10.558,12.604,10.565C12.643,10.57,12.682,10.574,12.721,10.579C12.777,10.584,12.833,10.593,12.889,10.598C13.043,10.61,13.197,10.618,13.352,10.622C13.401,10.623,13.448,10.621,13.497,10.621C13.539,10.622,13.581,10.621,13.623,10.621C13.693,10.62,13.764,10.622,13.835,10.62C14.009,10.614,14.182,10.602,14.355,10.585C14.374,10.583,14.392,10.579,14.411,10.577C14.456,10.572,14.5,10.564,14.546,10.558C14.682,10.542,14.818,10.526,14.953,10.502C15.01,10.491,15.062,10.473,15.119,10.461C15.278,10.428,15.431,10.388,15.585,10.345C15.668,10.321,15.756,10.308,15.837,10.282C15.874,10.27,15.903,10.25,15.939,10.237C16.262,10.125,16.573,9.998,16.85,9.837C16.85,9.837,16.861,6.162,16.861,6.162Z" /></g><g id="i22" transform="matrix(1,0,0,1,199.561,90.165)"><path fill="#ee3a24" d="M28.944,-1.912C30.763,-0.861,30.773,0.861,28.965,1.912C28.965,1.912,3.394,16.773,3.394,16.773C1.587,17.822,-1.386,17.822,-3.205,16.773C-3.205,16.773,-28.944,1.912,-28.944,1.912C-30.763,0.861,-30.773,-0.861,-28.965,-1.911C-28.965,-1.911,-3.394,-16.77,-3.394,-16.77C-1.586,-17.821,1.386,-17.821,3.205,-16.771C3.205,-16.771,28.944,-1.912,28.944,-1.912Z" /></g><g id="i23" transform="matrix(1,0,0,1,186.177,90.165)"><path fill="#f2755c" d="M10.592,14.613C10.592,14.613,-11.835,1.665,-11.835,1.665C-13.42,0.75,-13.429,-0.749,-11.854,-1.664C-11.854,-1.664,10.428,-14.613,10.428,-14.613C-1.042,-8.936,-0.979,-5.401,-1.674,-2.525C-2.887,2.5,2.532,5.458,6.792,6.467C8.856,6.955,11.138,7.584,12.182,9.102C13.428,10.918,12.722,13.902,10.592,14.613Z" /></g><g id="i24" transform="matrix(1,0,0,1,199.569,69.487)"><path fill="#d72727" d="M16.783,17.367C16.783,17.367,16.797,17.367,16.797,17.367C16.764,17.152,16.731,16.937,16.681,16.722C16.681,16.722,7.508,-24.647,7.508,-24.647C7.508,-24.647,7.409,-25.06,7.409,-25.06C7.128,-25.886,6.45,-26.68,5.343,-27.308C5.128,-27.423,4.913,-27.539,4.682,-27.638C4.682,-27.638,4.62,-27.638,4.62,-27.638C1.882,-28.885,-1.98,-28.887,-4.706,-27.638C-4.937,-27.539,-5.152,-27.423,-5.367,-27.308C-6.474,-26.68,-7.152,-25.886,-7.433,-25.06C-7.433,-25.06,-7.532,-24.647,-7.532,-24.647C-7.532,-24.647,-16.705,16.722,-16.705,16.722C-16.754,16.937,-16.787,17.152,-16.821,17.367C-17.184,20.127,-15.548,22.953,-11.895,25.068C-5.284,28.887,5.376,28.887,11.954,25.068C15.583,22.958,17.184,20.124,16.783,17.367Z" /></g><g id="i25" transform="matrix(1,0,0,1,194.76,69.219)"><path fill="#ee3a24" d="M12.318,-24.378C12.318,-24.378,12.218,-24.791,12.218,-24.791C11.938,-25.618,11.26,-26.411,10.152,-27.039C9.938,-27.154,9.723,-27.271,9.491,-27.37C9.491,-27.37,9.429,-27.37,9.429,-27.37C6.691,-28.616,2.83,-28.618,0.104,-27.37C-0.127,-27.271,-0.343,-27.154,-0.557,-27.039C-1.664,-26.411,-2.342,-25.618,-2.623,-24.791C-2.623,-24.791,-2.723,-24.378,-2.723,-24.378C-2.723,-24.378,-6.85,-5.761,-6.85,-5.761C-6.85,-5.761,-11.895,16.991,-11.895,16.991C-11.945,17.206,-11.978,17.421,-12.011,17.636C-12.374,20.395,-10.738,23.222,-7.086,25.337C-2.954,27.724,2.76,28.618,8.07,28.021C8.07,28.021,8.07,-19.144,8.07,-19.144C8.07,-19.144,7.954,-19.903,8.699,-20.109C10.868,-20.711,12.374,-22.948,12.318,-24.378Z" /></g><g id="i26" transform="matrix(1,0,0,1,199.74,45.147)"><path fill="#d72727" d="M3.205,2.08C2.274,2.624,1.051,2.895,-0.182,2.895C-1.395,2.895,-2.618,2.624,-3.548,2.08C-4.604,1.475,-5.064,0.649,-4.939,-0.146C-4.939,-0.146,-4.876,-0.407,-4.876,-0.407C-4.698,-0.93,-4.27,-1.432,-3.569,-1.829C-3.433,-1.902,-3.297,-1.975,-3.151,-2.037C-1.28,-2.895,1.449,-2.833,3.184,-1.829C5.055,-0.753,5.065,1.004,3.205,2.08Z" /></g><g id="i27" transform="matrix(1,0,0,1,199.559,74.12)"><path fill="#ffffff" d="M14.66,2.933C14.115,4.537,12.759,6.074,10.611,7.329C4.793,10.718,-4.661,10.718,-10.528,7.329C-12.694,6.057,-14.082,4.52,-14.66,2.901C-14.66,2.901,-11.636,-10.718,-11.636,-10.718C-11.305,-10.47,-10.925,-10.239,-10.528,-10.007C-4.661,-6.62,4.793,-6.62,10.627,-10.007C10.991,-10.222,11.338,-10.437,11.652,-10.669C11.652,-10.669,14.66,2.933,14.66,2.933Z" /></g><g id="i28" transform="matrix(1,0,0,1,195.827,46.252)"><path fill="#f2755c" d="M-3.25,-2.088C-3.25,-2.088,-2.309,-3.455,-1.471,-3.014C-0.632,-2.572,-1.5,-2.25,-1.765,-1.721C-2.029,-1.192,-2.408,1.13,0.328,1.619C3.062,2.107,4,2.956,2.926,3.118C0.686,3.455,-1.706,2.408,-2.853,1.133C-4,-0.143,-3.562,-1.397,-3.25,-2.088Z" /></g><g id="i29" transform="matrix(1,0,0,1,137.918,75.059)"><path fill="#000000" fill-opacity="0.1" d="M29.976,-1.426C31.839,-0.351,31.696,1.48,29.958,2.565C29.566,2.81,29.157,3.031,28.758,3.263C26.716,4.449,24.675,5.636,22.633,6.822C17.384,9.873,12.203,13.044,6.886,15.973C5.983,16.47,3.631,17.366,1.245,17.595C-1.503,17.857,-4.176,18.024,-6.476,16.696C-10.977,14.097,-13.065,12.387,-17.565,9.789C-21.685,7.41,-25.835,5.077,-29.927,2.651C-30.877,2.089,-31.839,1.203,-31.444,-0.006C-31.175,-0.832,-30.401,-1.273,-29.695,-1.683C-28.011,-2.661,-26.328,-3.64,-24.644,-4.618C-24.644,-4.618,-8.648,-13.914,-8.648,-13.914C-7.064,-14.835,-5.485,-15.765,-3.897,-16.676C-1.677,-17.948,1.128,-18.024,3.384,-16.779C12.073,-11.985,20.587,-6.846,29.182,-1.884C29.447,-1.732,29.711,-1.578,29.976,-1.426Z" /></g><g id="i30" transform="matrix(1,0,0,1,150.855,81.354)"><path fill="#d72727" d="M13.386,-9.738C13.38,-9.719,13.377,-9.702,13.37,-9.684C13.32,-9.537,13.243,-9.392,13.15,-9.251C13.133,-9.224,13.116,-9.198,13.097,-9.173C12.995,-9.032,12.873,-8.894,12.728,-8.763C12.637,-8.681,12.521,-8.608,12.414,-8.531C12.315,-8.46,12.23,-8.384,12.116,-8.319C12.116,-8.319,-13.455,6.541,-13.455,6.541C-13.455,6.541,-13.466,10.217,-13.466,10.217C-13.466,10.217,12.106,-4.644,12.106,-4.644C12.125,-4.655,12.143,-4.666,12.162,-4.676C12.254,-4.732,12.32,-4.797,12.403,-4.855C12.511,-4.932,12.627,-5.007,12.718,-5.089C12.726,-5.096,12.738,-5.102,12.746,-5.11C12.855,-5.21,12.951,-5.314,13.035,-5.42C13.054,-5.445,13.069,-5.472,13.087,-5.498C13.106,-5.523,13.122,-5.55,13.139,-5.576C13.167,-5.617,13.199,-5.657,13.222,-5.699C13.272,-5.787,13.314,-5.876,13.347,-5.966C13.353,-5.98,13.355,-5.995,13.36,-6.009C13.366,-6.027,13.37,-6.045,13.375,-6.062C13.393,-6.118,13.412,-6.174,13.424,-6.23C13.441,-6.32,13.452,-6.41,13.454,-6.5C13.455,-6.514,13.455,-6.528,13.455,-6.542C13.455,-6.542,13.466,-10.217,13.466,-10.217C13.465,-10.056,13.435,-9.896,13.386,-9.738Z" /></g><g id="i31" transform="matrix(1,0,0,1,120.539,81.734)"><path fill="#ee3a24" d="M16.861,6.161C16.584,6.322,16.272,6.45,15.949,6.561C15.834,6.601,15.715,6.636,15.596,6.669C15.443,6.712,15.289,6.753,15.13,6.785C14.941,6.824,14.749,6.859,14.555,6.884C14.51,6.889,14.466,6.897,14.421,6.902C14.161,6.93,13.897,6.943,13.633,6.945C13.591,6.945,13.549,6.946,13.507,6.946C13.247,6.944,12.987,6.93,12.731,6.903C12.692,6.899,12.654,6.894,12.615,6.89C12.361,6.86,12.108,6.817,11.863,6.762C11.818,6.752,11.775,6.74,11.731,6.729C11.51,6.676,11.297,6.61,11.089,6.535C11.049,6.52,11.007,6.51,10.968,6.494C10.719,6.398,10.481,6.288,10.261,6.161C10.261,6.161,-15.478,-8.699,-15.478,-8.699C-16.164,-9.095,-16.593,-9.587,-16.764,-10.103C-16.821,-10.275,-16.849,-10.449,-16.848,-10.623C-16.848,-10.623,-16.859,-6.948,-16.859,-6.948C-16.861,-6.251,-16.404,-5.553,-15.488,-5.024C-15.488,-5.024,10.251,9.837,10.251,9.837C10.459,9.957,10.683,10.062,10.917,10.155C10.93,10.161,10.944,10.164,10.958,10.17C10.997,10.184,11.038,10.196,11.078,10.21C11.21,10.258,11.342,10.307,11.48,10.346C11.559,10.368,11.64,10.385,11.721,10.405C11.765,10.416,11.809,10.427,11.854,10.437C11.892,10.446,11.928,10.457,11.967,10.465C12.12,10.497,12.276,10.523,12.432,10.546C12.489,10.554,12.547,10.558,12.604,10.565C12.643,10.57,12.682,10.574,12.721,10.578C12.777,10.584,12.833,10.593,12.889,10.597C13.043,10.609,13.197,10.618,13.352,10.622C13.401,10.623,13.448,10.621,13.496,10.621C13.539,10.621,13.581,10.621,13.623,10.62C13.693,10.62,13.763,10.622,13.833,10.619C14.008,10.613,14.182,10.601,14.355,10.585C14.374,10.583,14.392,10.579,14.41,10.577C14.456,10.572,14.499,10.564,14.544,10.558C14.681,10.541,14.818,10.525,14.953,10.502C15.01,10.491,15.062,10.472,15.119,10.46C15.278,10.428,15.431,10.388,15.585,10.345C15.668,10.321,15.756,10.307,15.837,10.281C15.873,10.269,15.902,10.249,15.939,10.236C16.262,10.125,16.573,9.997,16.85,9.837C16.85,9.837,16.861,6.161,16.861,6.161Z" /></g><g id="i32" transform="matrix(1,0,0,1,134.006,71.124)"><path fill="#ee3a24" d="M28.944,-1.912C30.763,-0.861,30.773,0.861,28.965,1.911C28.965,1.911,3.394,16.771,3.394,16.771C1.587,17.821,-1.386,17.821,-3.205,16.771C-3.205,16.771,-28.944,1.911,-28.944,1.911C-30.763,0.861,-30.772,-0.861,-28.965,-1.912C-28.965,-1.912,-3.393,-16.771,-3.393,-16.771C-1.586,-17.821,1.385,-17.821,3.204,-16.771C3.204,-16.771,28.944,-1.912,28.944,-1.912Z" /></g><g id="i33" transform="matrix(1,0,0,1,120.622,71.124)"><path fill="#f2755c" d="M10.592,14.613C10.592,14.613,-11.835,1.667,-11.835,1.667C-13.42,0.752,-13.429,-0.749,-11.854,-1.664C-11.854,-1.664,10.426,-14.613,10.426,-14.613C-1.044,-8.935,-0.979,-5.4,-1.674,-2.525C-2.887,2.5,2.531,5.459,6.792,6.467C8.856,6.955,11.139,7.585,12.182,9.103C13.429,10.918,12.721,13.903,10.592,14.613Z" /></g><g id="i34" transform="matrix(1,0,0,1,134.014,50.446)"><path fill="#d72727" d="M16.783,17.366C16.783,17.366,16.796,17.366,16.796,17.366C16.763,17.151,16.73,16.936,16.68,16.721C16.68,16.721,7.508,-24.647,7.508,-24.647C7.508,-24.647,7.408,-25.061,7.408,-25.061C7.128,-25.887,6.45,-26.68,5.343,-27.308C5.128,-27.424,4.913,-27.539,4.681,-27.639C4.681,-27.639,4.619,-27.639,4.619,-27.639C1.881,-28.885,-1.981,-28.887,-4.706,-27.639C-4.938,-27.539,-5.153,-27.424,-5.367,-27.308C-6.475,-26.68,-7.153,-25.887,-7.433,-25.061C-7.433,-25.061,-7.532,-24.647,-7.532,-24.647C-7.532,-24.647,-16.704,16.721,-16.704,16.721C-16.754,16.936,-16.788,17.151,-16.821,17.366C-17.185,20.127,-15.549,22.953,-11.896,25.068C-5.285,28.887,5.376,28.887,11.953,25.068C15.582,22.957,17.185,20.124,16.783,17.366Z" /></g><g id="i35" transform="matrix(1,0,0,1,129.205,50.178)"><path fill="#ee3a24" d="M12.318,-24.379C12.318,-24.379,12.218,-24.792,12.218,-24.792C11.937,-25.618,11.259,-26.411,10.152,-27.039C9.937,-27.155,9.723,-27.271,9.492,-27.37C9.492,-27.37,9.43,-27.37,9.43,-27.37C6.691,-28.616,2.83,-28.618,0.104,-27.37C-0.127,-27.271,-0.342,-27.155,-0.557,-27.039C-1.664,-26.411,-2.343,-25.618,-2.624,-24.792C-2.624,-24.792,-2.723,-24.379,-2.723,-24.379C-2.723,-24.379,-6.85,-5.761,-6.85,-5.761C-6.85,-5.761,-11.896,16.99,-11.896,16.99C-11.946,17.205,-11.978,17.42,-12.012,17.635C-12.375,20.395,-10.738,23.222,-7.085,25.337C-2.953,27.723,2.76,28.618,8.07,28.021C8.07,28.021,8.07,-19.144,8.07,-19.144C8.07,-19.144,7.954,-19.903,8.699,-20.11C10.868,-20.712,12.375,-22.948,12.318,-24.379Z" /></g><g id="i36" transform="matrix(1,0,0,1,134.185,26.106)"><path fill="#d72727" d="M3.204,2.08C2.274,2.624,1.051,2.895,-0.183,2.895C-1.396,2.895,-2.619,2.624,-3.549,2.08C-4.605,1.474,-5.065,0.649,-4.939,-0.146C-4.939,-0.146,-4.877,-0.407,-4.877,-0.407C-4.699,-0.93,-4.27,-1.433,-3.57,-1.829C-3.434,-1.902,-3.298,-1.975,-3.151,-2.037C-1.28,-2.895,1.448,-2.833,3.183,-1.829C5.055,-0.753,5.065,1.004,3.204,2.08Z" /></g><g id="i37" transform="matrix(1,0,0,1,134.004,55.078)"><path fill="#ffffff" d="M14.66,2.933C14.115,4.537,12.76,6.074,10.611,7.329C4.793,10.718,-4.661,10.718,-10.528,7.329C-12.694,6.057,-14.082,4.52,-14.66,2.9C-14.66,2.9,-11.635,-10.718,-11.635,-10.718C-11.305,-10.47,-10.925,-10.24,-10.528,-10.008C-4.661,-6.62,4.793,-6.62,10.627,-10.008C10.991,-10.223,11.338,-10.438,11.652,-10.67C11.652,-10.67,14.66,2.933,14.66,2.933Z" /></g><g id="i3" transform="matrix(1,0,0,1,130.272,27.211)"><path fill="#f2755c" d="M-3.25,-2.088C-3.25,-2.088,-2.309,-3.455,-1.471,-3.014C-0.633,-2.572,-1.5,-2.25,-1.765,-1.721C-2.03,-1.192,-2.408,1.129,0.327,1.618C3.062,2.107,4,2.956,2.926,3.117C0.686,3.455,-1.706,2.408,-2.853,1.132C-4,-0.144,-3.563,-1.398,-3.25,-2.088Z" /></g><g id="i5" transform="matrix(1,0,0,1,34.936,53.75)"><path fill="#000000" fill-opacity="0.1" d="M29.976,-1.426C31.839,-0.351,31.696,1.48,29.958,2.565C29.567,2.81,29.157,3.031,28.758,3.262C28.758,3.262,22.633,6.822,22.633,6.822C17.384,9.873,12.203,13.044,6.885,15.973C5.982,16.47,3.631,17.366,1.245,17.595C-1.503,17.857,-4.177,18.024,-6.477,16.696C-10.978,14.097,-13.065,12.387,-17.566,9.789C-21.686,7.41,-25.836,5.077,-29.928,2.651C-30.878,2.089,-31.839,1.203,-31.445,-0.006C-31.176,-0.832,-30.401,-1.273,-29.695,-1.683C-28.011,-2.661,-26.329,-3.64,-24.645,-4.618C-19.313,-7.717,-13.98,-10.816,-8.648,-13.914C-7.064,-14.835,-5.486,-15.765,-3.898,-16.676C-1.678,-17.948,1.127,-18.024,3.383,-16.779C12.072,-11.985,20.588,-6.846,29.182,-1.884C29.447,-1.732,29.711,-1.578,29.976,-1.426Z" /></g><g id="i6" transform="matrix(1,0,0,1,47.872,60.045)"><path fill="#d72727" d="M13.386,-9.738C13.38,-9.719,13.377,-9.702,13.37,-9.684C13.32,-9.537,13.243,-9.392,13.15,-9.251C13.133,-9.224,13.116,-9.199,13.097,-9.173C12.995,-9.032,12.873,-8.894,12.728,-8.763C12.637,-8.681,12.521,-8.608,12.414,-8.531C12.315,-8.461,12.23,-8.384,12.116,-8.319C12.116,-8.319,-13.455,6.541,-13.455,6.541C-13.455,6.541,-13.466,10.217,-13.466,10.217C-13.466,10.217,12.106,-4.644,12.106,-4.644C12.125,-4.655,12.143,-4.666,12.162,-4.677C12.254,-4.732,12.321,-4.797,12.403,-4.855C12.511,-4.932,12.627,-5.007,12.718,-5.089C12.726,-5.096,12.738,-5.102,12.746,-5.11C12.855,-5.21,12.951,-5.314,13.035,-5.421C13.055,-5.446,13.069,-5.472,13.087,-5.498C13.106,-5.523,13.122,-5.55,13.139,-5.576C13.167,-5.617,13.199,-5.657,13.223,-5.699C13.272,-5.787,13.314,-5.876,13.347,-5.966C13.353,-5.98,13.355,-5.995,13.36,-6.009C13.366,-6.027,13.37,-6.045,13.375,-6.062C13.393,-6.119,13.412,-6.174,13.424,-6.23C13.442,-6.32,13.452,-6.41,13.454,-6.501C13.455,-6.514,13.455,-6.528,13.455,-6.542C13.455,-6.542,13.466,-10.217,13.466,-10.217C13.465,-10.056,13.435,-9.896,13.386,-9.738Z" /></g><g id="i7" transform="matrix(1,0,0,1,17.556,60.426)"><path fill="#ee3a24" d="M16.861,6.161C16.584,6.322,16.272,6.45,15.949,6.561C15.834,6.601,15.715,6.636,15.596,6.669C15.443,6.712,15.289,6.753,15.13,6.785C14.941,6.824,14.75,6.859,14.555,6.884C14.51,6.889,14.466,6.897,14.421,6.902C14.161,6.93,13.897,6.943,13.633,6.945C13.591,6.945,13.549,6.946,13.507,6.946C13.247,6.944,12.988,6.93,12.731,6.903C12.693,6.899,12.653,6.894,12.615,6.89C12.36,6.86,12.108,6.817,11.863,6.762C11.818,6.752,11.777,6.74,11.732,6.729C11.511,6.676,11.297,6.61,11.09,6.535C11.05,6.52,11.008,6.51,10.969,6.494C10.72,6.398,10.482,6.288,10.262,6.161C10.262,6.161,-15.478,-8.699,-15.478,-8.699C-16.164,-9.096,-16.593,-9.587,-16.764,-10.103C-16.821,-10.275,-16.849,-10.449,-16.848,-10.623C-16.848,-10.623,-16.859,-6.948,-16.859,-6.948C-16.861,-6.251,-16.404,-5.553,-15.488,-5.024C-15.488,-5.024,10.251,9.837,10.251,9.837C10.459,9.957,10.683,10.062,10.917,10.155C10.931,10.161,10.944,10.164,10.958,10.17C10.997,10.184,11.039,10.196,11.079,10.21C11.211,10.258,11.342,10.307,11.48,10.346C11.559,10.368,11.641,10.385,11.721,10.405C11.765,10.416,11.809,10.427,11.854,10.437C11.892,10.446,11.928,10.457,11.967,10.465C12.12,10.497,12.276,10.523,12.432,10.546C12.489,10.554,12.547,10.558,12.604,10.565C12.643,10.57,12.682,10.574,12.721,10.578C12.777,10.584,12.833,10.593,12.889,10.597C13.043,10.609,13.197,10.618,13.352,10.622C13.401,10.623,13.448,10.621,13.497,10.621C13.539,10.621,13.581,10.621,13.623,10.62C13.693,10.62,13.763,10.622,13.833,10.619C14.008,10.613,14.182,10.601,14.355,10.585C14.374,10.583,14.392,10.579,14.41,10.577C14.456,10.572,14.499,10.564,14.544,10.558C14.681,10.541,14.818,10.525,14.953,10.502C15.01,10.491,15.062,10.472,15.119,10.46C15.278,10.428,15.431,10.388,15.585,10.344C15.668,10.321,15.756,10.307,15.837,10.281C15.873,10.269,15.902,10.249,15.939,10.236C16.262,10.125,16.573,9.997,16.85,9.837C16.85,9.837,16.861,6.161,16.861,6.161Z" /></g><g id="i8" transform="matrix(1,0,0,1,31.023,49.816)"><path fill="#ee3a24" d="M28.944,-1.912C30.763,-0.861,30.773,0.861,28.965,1.911C28.965,1.911,3.394,16.771,3.394,16.771C1.587,17.821,-1.386,17.821,-3.205,16.771C-3.205,16.771,-28.944,1.911,-28.944,1.911C-30.763,0.861,-30.773,-0.861,-28.966,-1.912C-28.966,-1.912,-3.394,-16.771,-3.394,-16.771C-1.587,-17.821,1.386,-17.821,3.205,-16.771C3.205,-16.771,28.944,-1.912,28.944,-1.912Z" /></g><g id="i4" transform="matrix(1,0,0,1,17.639,49.815)"><path fill="#f2755c" d="M10.592,14.613C10.592,14.613,-11.835,1.667,-11.835,1.667C-13.42,0.751,-13.429,-0.749,-11.854,-1.664C-11.854,-1.664,10.426,-14.613,10.426,-14.613C-1.044,-8.935,-0.979,-5.4,-1.674,-2.525C-2.887,2.5,2.532,5.458,6.792,6.467C8.856,6.955,11.138,7.585,12.182,9.103C13.428,10.918,12.721,13.903,10.592,14.613Z" /></g><g id="i9" transform="matrix(1,0,0,1,31.032,29.138)"><path fill="#d72727" d="M16.782,17.366C16.782,17.366,16.796,17.366,16.796,17.366C16.763,17.151,16.73,16.936,16.68,16.721C16.68,16.721,7.508,-24.648,7.508,-24.648C7.508,-24.648,7.408,-25.061,7.408,-25.061C7.128,-25.887,6.45,-26.68,5.343,-27.308C5.128,-27.424,4.913,-27.539,4.681,-27.639C4.681,-27.639,4.619,-27.639,4.619,-27.639C1.881,-28.885,-1.98,-28.887,-4.706,-27.639C-4.938,-27.539,-5.153,-27.424,-5.367,-27.308C-6.475,-26.68,-7.152,-25.887,-7.433,-25.061C-7.433,-25.061,-7.532,-24.648,-7.532,-24.648C-7.532,-24.648,-16.705,16.721,-16.705,16.721C-16.755,16.936,-16.788,17.151,-16.821,17.366C-17.184,20.127,-15.548,22.953,-11.896,25.068C-5.285,28.887,5.376,28.887,11.954,25.068C15.582,22.957,17.184,20.124,16.782,17.366Z" /></g><g id="i10" transform="matrix(1,0,0,1,26.222,28.868)"><path fill="#ee3a24" d="M12.318,-24.379C12.318,-24.379,12.218,-24.792,12.218,-24.792C11.937,-25.618,11.259,-26.41,10.152,-27.038C9.937,-27.154,9.723,-27.271,9.492,-27.37C9.492,-27.37,9.43,-27.37,9.43,-27.37C6.691,-28.616,2.83,-28.619,0.104,-27.37C-0.127,-27.271,-0.342,-27.154,-0.557,-27.038C-1.664,-26.41,-2.343,-25.618,-2.624,-24.792C-2.624,-24.792,-2.723,-24.379,-2.723,-24.379C-2.723,-24.379,-6.85,-5.76,-6.85,-5.76C-6.85,-5.76,-11.896,16.991,-11.896,16.991C-11.946,17.206,-11.978,17.42,-12.012,17.635C-12.375,20.395,-10.738,23.222,-7.085,25.337C-2.953,27.723,2.76,28.619,8.07,28.022C8.07,28.022,8.07,-19.143,8.07,-19.143C8.07,-19.143,7.954,-19.902,8.699,-20.109C10.868,-20.711,12.375,-22.948,12.318,-24.379Z" /></g><g id="i11" transform="matrix(1,0,0,1,31.202,4.797)"><path fill="#d72727" d="M3.204,2.08C2.274,2.624,1.051,2.895,-0.183,2.895C-1.395,2.895,-2.618,2.624,-3.549,2.08C-4.605,1.474,-5.065,0.649,-4.939,-0.146C-4.939,-0.146,-4.877,-0.407,-4.877,-0.407C-4.699,-0.93,-4.27,-1.433,-3.57,-1.829C-3.434,-1.902,-3.298,-1.975,-3.151,-2.038C-1.28,-2.895,1.448,-2.833,3.183,-1.829C5.055,-0.753,5.065,1.004,3.204,2.08Z" /></g><g id="i12" transform="matrix(1,0,0,1,31.021,33.77)"><path fill="#ffffff" d="M14.66,2.933C14.115,4.537,12.76,6.074,10.611,7.329C4.793,10.718,-4.661,10.718,-10.528,7.329C-12.693,6.057,-14.082,4.52,-14.66,2.9C-14.66,2.9,-11.635,-10.718,-11.635,-10.718C-11.305,-10.471,-10.924,-10.24,-10.528,-10.008C-4.661,-6.62,4.793,-6.62,10.627,-10.008C10.991,-10.223,11.338,-10.438,11.652,-10.67C11.652,-10.67,14.66,2.933,14.66,2.933Z" /></g><g id="i13" transform="matrix(1,0,0,1,27.289,5.903)"><path fill="#f2755c" d="M-3.25,-2.088C-3.25,-2.088,-2.309,-3.455,-1.471,-3.014C-0.632,-2.572,-1.5,-2.25,-1.765,-1.721C-2.029,-1.192,-2.408,1.129,0.327,1.618C3.062,2.107,4,2.956,2.926,3.117C0.686,3.455,-1.706,2.408,-2.853,1.132C-4,-0.144,-3.562,-1.398,-3.25,-2.088Z" /></g></g><g transform="matrix(2.258,0,0,2.258,230.644,72.238)" id="i39"><g id="i37" transform="matrix(1,0,0,1,25.544,29.421)"><path fill="#f9c269" d="M25.281,7.649C25.294,12.471,23.835,17.707,19.466,20.332C16.921,21.861,8.65,26.597,9.171,26.299C4.514,29.17,-1.315,27.346,-5.626,24.716C-9.833,22.149,-13.368,18.535,-16.251,14.565C-19.268,10.409,-21.648,5.746,-23.137,0.827C-24.566,-3.89,-25.293,-9.13,-24.108,-13.98C-23.26,-17.456,-21.366,-20.155,-18.284,-21.949C-18.284,-21.949,-10.557,-26.447,-10.557,-26.447C-8.069,-27.895,-5.734,-29.17,-2.724,-29.027C2.008,-28.802,6.352,-26.307,9.919,-23.341C17.888,-16.714,23.752,-6.433,25.04,3.889C25.196,5.139,25.281,6.389,25.281,7.649Z" /></g><g id="i3" transform="matrix(1,0,0,1,20.559,31.849)"><path fill="#ffffac" d="M0.055,-19.187C9.274,-13.864,16.732,-0.953,16.702,9.641C16.672,20.242,9.166,24.513,-0.054,19.19C-9.279,13.863,-16.732,0.957,-16.702,-9.644C-16.672,-20.238,-9.171,-24.514,0.055,-19.187Z" /></g><g id="i5" transform="matrix(1,0,0,1,41.309,34.46)"><path fill="#e2a854" d="M8.525,6.09C8.015,9.82,7.538,12.406,3.238,15.51C3.203,15.538,3.09,15.625,3.015,15.666C1.956,16.376,1.495,16.57,0.345,17.24C-2.035,18.62,-4.425,20.01,-6.805,21.39C-3.415,19.43,-1.775,15.58,-1.265,11.86C-0.275,4.62,-2.645,-2.98,-6.075,-9.29C-9.515,-15.63,0.275,-21.39,3.725,-15.05C7.145,-8.74,9.515,-1.14,8.525,6.09Z" /></g><g id="i6" transform="matrix(1,0,0,1,25.544,29.421)"><path fill="#f9c269" d="M25.281,7.649C25.294,12.471,23.835,17.707,19.466,20.332C16.921,21.861,8.65,26.597,9.171,26.299C4.514,29.17,-1.315,27.346,-5.626,24.716C-9.833,22.149,-13.368,18.535,-16.251,14.565C-19.268,10.409,-21.648,5.746,-23.137,0.827C-24.566,-3.89,-25.293,-9.13,-24.108,-13.98C-23.26,-17.456,-21.366,-20.155,-18.284,-21.949C-18.284,-21.949,-10.557,-26.447,-10.557,-26.447C-8.069,-27.895,-5.734,-29.17,-2.724,-29.027C2.008,-28.802,6.352,-26.307,9.919,-23.341C17.888,-16.714,23.752,-6.433,25.04,3.889C25.196,5.139,25.281,6.389,25.281,7.649Z" /></g><g id="i7" transform="matrix(1,0,0,1,20.559,31.849)"><path fill="#38382d" d="M0.055,-19.187C9.274,-13.864,16.732,-0.953,16.702,9.641C16.672,20.242,9.166,24.513,-0.054,19.19C-9.279,13.863,-16.732,0.957,-16.702,-9.644C-16.672,-20.238,-9.171,-24.514,0.055,-19.187Z"><animate repeatCount="indefinite" attributeName="fill" dur="1s" begin="0s" fill="freeze" values="#38382d; #ffff42; #38382d; #38382d" keyTimes="0; 0.183333; 0.666667; 1" keySplines="0 0 1 1; 0 0 1 1; 0 0 1 1" calcMode="spline" /></path></g><g id="i8" transform="matrix(1,0,0,1,41.309,34.46)"><path fill="#e2a854" d="M8.525,6.09C8.015,9.82,7.538,12.406,3.238,15.51C3.203,15.538,3.09,15.625,3.015,15.666C1.956,16.376,1.495,16.57,0.345,17.24C-2.035,18.62,-4.425,20.01,-6.805,21.39C-3.415,19.43,-1.775,15.58,-1.265,11.86C-0.275,4.62,-2.645,-2.98,-6.075,-9.29C-9.515,-15.63,0.275,-21.39,3.725,-15.05C7.145,-8.74,9.515,-1.14,8.525,6.09Z" /></g><g id="i4" transform="matrix(1,0,0,1,92.298,67.69)"><path fill="#f9c269" d="M25.281,7.649C25.294,12.471,23.835,17.708,19.466,20.332C16.921,21.861,8.65,26.597,9.171,26.299C4.514,29.17,-1.315,27.346,-5.626,24.716C-9.833,22.149,-13.368,18.535,-16.251,14.565C-19.268,10.409,-21.648,5.746,-23.137,0.828C-24.566,-3.89,-25.293,-9.13,-24.109,-13.98C-23.26,-17.456,-21.366,-20.155,-18.285,-21.949C-15.709,-23.448,-13.133,-24.946,-10.557,-26.446C-8.07,-27.894,-5.734,-29.17,-2.724,-29.027C2.008,-28.802,6.352,-26.307,9.919,-23.341C17.888,-16.714,23.752,-6.433,25.04,3.889C25.196,5.139,25.281,6.39,25.281,7.649Z" /></g><g id="i9" transform="matrix(1,0,0,1,87.313,70.119)"><path fill="#ffffac" d="M0.055,-19.187C9.274,-13.864,16.732,-0.953,16.701,9.641C16.672,20.242,9.165,24.513,-0.054,19.19C-9.28,13.863,-16.732,0.957,-16.702,-9.644C-16.672,-20.238,-9.171,-24.514,0.055,-19.187Z" /></g><g id="i10" transform="matrix(1,0,0,1,108.063,72.73)"><path fill="#e2a854" d="M8.525,6.09C8.015,9.82,7.538,12.406,3.238,15.51C3.203,15.538,3.09,15.625,3.016,15.666C1.956,16.376,1.495,16.57,0.345,17.24C-2.035,18.62,-4.425,20.01,-6.805,21.39C-3.415,19.43,-1.775,15.58,-1.265,11.86C-0.275,4.62,-2.645,-2.98,-6.075,-9.29C-9.515,-15.63,0.275,-21.39,3.725,-15.05C7.145,-8.74,9.515,-1.14,8.525,6.09Z" /></g><g id="i11" transform="matrix(1,0,0,1,92.298,67.69)"><path fill="#f9c269" d="M25.281,7.649C25.294,12.471,23.835,17.708,19.466,20.332C16.921,21.861,8.65,26.597,9.171,26.299C4.514,29.17,-1.315,27.346,-5.626,24.716C-9.833,22.149,-13.368,18.535,-16.251,14.565C-19.268,10.409,-21.648,5.746,-23.137,0.828C-24.566,-3.89,-25.293,-9.13,-24.109,-13.98C-23.26,-17.456,-21.366,-20.155,-18.285,-21.949C-15.709,-23.448,-13.133,-24.946,-10.557,-26.446C-8.07,-27.894,-5.734,-29.17,-2.724,-29.027C2.008,-28.802,6.352,-26.307,9.919,-23.341C17.888,-16.714,23.752,-6.433,25.04,3.889C25.196,5.139,25.281,6.39,25.281,7.649Z" /></g><g id="i12" transform="matrix(1,0,0,1,87.313,70.119)"><path fill="#38382d" d="M0.055,-19.187C9.274,-13.864,16.732,-0.953,16.701,9.641C16.672,20.242,9.165,24.513,-0.054,19.19C-9.28,13.863,-16.732,0.957,-16.702,-9.644C-16.672,-20.238,-9.171,-24.514,0.055,-19.187Z"><animate repeatCount="indefinite" attributeName="fill" dur="1s" begin="0s" fill="freeze" values="#38382d; #38382d; #ffff42; #38382d; #38382d" keyTimes="0; 0.25; 0.433333; 0.916667; 1" keySplines="0 0 1 1; 0 0 1 1; 0 0 1 1; 0 0 1 1" calcMode="spline" /></path></g><g id="i13" transform="matrix(1,0,0,1,108.063,72.73)"><path fill="#e2a854" d="M8.525,6.09C8.015,9.82,7.538,12.406,3.238,15.51C3.203,15.538,3.09,15.625,3.016,15.666C1.956,16.376,1.495,16.57,0.345,17.24C-2.035,18.62,-4.425,20.01,-6.805,21.39C-3.415,19.43,-1.775,15.58,-1.265,11.86C-0.275,4.62,-2.645,-2.98,-6.075,-9.29C-9.515,-15.63,0.275,-21.39,3.725,-15.05C7.145,-8.74,9.515,-1.14,8.525,6.09Z" /></g></g></g></defs><g transform="matrix(1,0,0,1,0,0)" id="i40"><g clip-path="url(#i0)"><g transform="matrix(2.258,0,0,2.258,473.275,118.371)"><g transform="matrix(1,0,0,1,71.785,102.197)"><path fill="#000000" fill-opacity="0.1" d="M11.139,37.464C11.139,37.464,-71.491,-10.554,-71.491,-10.554C-71.491,-10.554,-11.139,-37.464,-11.139,-37.464C-11.139,-37.464,71.491,10.555,71.491,10.555C71.491,10.555,11.139,37.464,11.139,37.464Z" /></g><g transform="matrix(1,0,0,1,102.852,93.966)"><path fill="#d72727" d="M6.096,-45.697C6.096,-45.697,11.831,-3.398,11.831,-3.398C11.831,-3.398,19.948,13.876,19.948,13.876C19.948,13.876,19.971,22.648,19.971,22.648C19.971,22.648,8.766,29.118,8.766,29.118C8.766,29.118,4.992,27.663,4.992,27.663C4.992,27.663,-4.987,33.424,-4.987,33.424C-4.987,33.424,-8.742,39.227,-8.742,39.227C-8.742,39.227,-19.948,45.697,-19.948,45.697C-19.948,45.697,-101.682,-2.271,-101.682,-2.271C-101.682,-2.271,-94.576,-37.261,-94.576,-37.261C-94.576,-37.261,-89.106,-86.415,-89.106,-86.415C-89.106,-86.415,6.096,-45.697,6.096,-45.697Z" /></g><g transform="matrix(1,0,0,1,41.577,111.266)"><path fill="#ee3a24" d="M41.327,28.396C41.327,28.396,-41.302,-19.623,-41.302,-19.623C-41.302,-19.623,-41.327,-28.396,-41.327,-28.396C-41.327,-28.396,41.303,19.623,41.303,19.623C41.303,19.623,41.327,28.396,41.327,28.396Z" /></g><g transform="matrix(1,0,0,1,45.561,93.592)"><path fill="#f2755c" d="M37.319,37.297C37.319,37.297,-45.311,-10.722,-45.311,-10.722C-45.311,-10.722,-37.319,-37.297,-37.319,-37.297C-37.319,-37.297,45.311,10.722,45.311,10.722C45.311,10.722,37.319,37.297,37.319,37.297Z" /></g><g transform="matrix(1,0,0,1,52.292,55.921)"><path fill="#ee3a24" d="M38.58,48.393C38.58,48.393,-44.05,0.374,-44.05,0.374C-44.05,0.374,-38.58,-48.393,-38.58,-48.393C-38.58,-48.393,44.05,-0.374,44.05,-0.374C44.05,-0.374,38.58,48.393,38.58,48.393Z" /></g><g transform="matrix(1,0,0,1,61.329,27.898)"><path fill="#f2755c" d="M35.013,27.648C35.013,27.648,-47.617,-20.37,-47.617,-20.37C-47.617,-20.37,-35.012,-27.648,-35.012,-27.648C-35.012,-27.648,47.617,20.371,47.617,20.371C47.617,20.371,35.013,27.648,35.013,27.648Z" /></g><g transform="matrix(1,0,0,1,64.309,77.701)"><path fill="#d72727" d="M7.885,-26.952C7.885,-26.952,3.393,13.142,3.393,13.142C3.393,13.142,-1.816,30.471,-1.816,30.471C-1.816,30.471,-7.885,26.952,-7.885,26.952C-7.885,26.952,-2.682,9.635,-2.682,9.635C-2.682,9.635,1.816,-30.471,1.816,-30.471C1.816,-30.471,7.885,-26.952,7.885,-26.952Z" /></g><g transform="matrix(1,0,0,1,34.627,60.495)"><path fill="#d72727" d="M7.885,-26.952C7.885,-26.952,3.394,13.142,3.394,13.142C3.394,13.142,-1.815,30.471,-1.815,30.471C-1.815,30.471,-7.885,26.952,-7.885,26.952C-7.885,26.952,-2.681,9.635,-2.681,9.635C-2.681,9.635,1.817,-30.471,1.817,-30.471C1.817,-30.471,7.885,-26.952,7.885,-26.952Z" /></g><g transform="matrix(1,0,0,1,59.459,105.107)"><path fill="#ee3a24" d="M-3.034,-0.449C-3.034,-0.449,1.498,-3.065,1.498,-3.065C1.498,-3.065,3.034,3.065,3.034,3.065C3.034,3.065,-3.034,-0.449,-3.034,-0.449Z" /></g><g transform="matrix(1,0,0,1,60.724,103.965)"><path fill="#ee3a24" d="M-4.299,0.693C-4.299,0.693,4.299,-4.207,4.299,-4.207C4.299,-4.207,1.769,4.207,1.769,4.207C1.769,4.207,-4.299,0.693,-4.299,0.693Z" /></g><g transform="matrix(1,0,0,1,31.042,86.759)"><path fill="#ee3a24" d="M-4.299,0.693C-4.299,0.693,4.299,-4.207,4.299,-4.207C4.299,-4.207,1.769,4.207,1.769,4.207C1.769,4.207,-4.299,0.693,-4.299,0.693Z" /></g></g><g transform="matrix(2.258,0,0,2.258,142.437,122.91)"><g transform="matrix(1,0,0,1,126.175,173.462)"><path fill="#000000" fill-opacity="0.1" fill-rule="evenodd" d="M99.467,8.74C99.467,8.74,89.208,9.415,89.208,9.415C89.208,9.415,-6.852,-46.546,-6.852,-46.546C-6.852,-46.546,6.686,-51.503,6.686,-51.503C6.686,-51.503,-12.773,-55.496,-12.773,-55.496C-12.773,-55.496,-50.808,-52.992,-50.808,-52.992C-50.808,-52.992,-41.984,-48.404,-41.984,-48.404C-41.984,-48.404,-33.237,-49.211,-33.237,-49.211C-33.237,-49.211,-42.943,-40.189,-42.943,-40.189C-42.943,-40.189,-52.947,-36.651,-52.947,-36.651C-52.947,-36.651,-56.4,-38.727,-56.4,-38.727C-56.4,-38.727,-82.396,-26.241,-82.396,-26.241C-82.396,-26.241,-118.926,-13.327,-118.926,-13.327C-118.926,-13.327,-110.102,-8.74,-110.102,-8.74C-110.102,-8.74,-76.487,-21.048,-76.487,-21.048C-76.487,-21.048,24.807,39.776,24.807,39.776C24.807,39.776,-6.686,50.909,-6.686,50.909C-6.686,50.909,2.137,55.496,2.137,55.496C2.137,55.496,118.926,12.733,118.926,12.733C118.926,12.733,99.467,8.74,99.467,8.74ZM100.418,13.047C100.418,13.047,97.32,14.142,97.32,14.142C97.32,14.142,96.124,13.443,96.124,13.443C96.124,13.443,100.418,13.047,100.418,13.047ZM-11.822,-51.189C-11.822,-51.189,-13.689,-50.529,-13.689,-50.529C-13.689,-50.529,-14.411,-50.951,-14.411,-50.951C-14.411,-50.951,-11.822,-51.189,-11.822,-51.189ZM-18.529,-50.57C-18.529,-50.57,-27.667,-46.181,-27.667,-46.181C-27.667,-46.181,-23.384,-50.121,-23.384,-50.121C-23.384,-50.121,-18.529,-50.57,-18.529,-50.57ZM-45.721,-32.314C-45.721,-32.314,-37.678,-35.258,-37.678,-35.258C-37.678,-35.258,66.077,25.186,66.077,25.186C66.077,25.186,55.98,28.755,55.98,28.755C55.98,28.755,-45.721,-32.314,-45.721,-32.314Z" /></g><g transform="matrix(1,0,0,1,64.086,62.815)"><path fill="#bbbdbf" d="M-11.787,-57.977C-11.787,-57.977,-20.611,-62.565,-20.611,-62.565C-20.611,-62.565,-23.553,-61.948,-23.553,-61.948C-23.553,-61.948,11.788,57.977,11.788,57.977C11.788,57.977,20.611,62.565,20.611,62.565C20.611,62.565,23.553,61.947,23.553,61.947C23.553,61.947,-11.787,-57.977,-11.787,-57.977Z" /></g><g transform="matrix(1,0,0,1,62.616,63.124)"><path fill="#a6a8ab" d="M-13.258,-57.668C-13.258,-57.668,-22.082,-62.256,-22.082,-62.256C-22.082,-62.256,13.259,57.668,13.259,57.668C13.259,57.668,22.082,62.256,22.082,62.256C22.082,62.256,-13.258,-57.668,-13.258,-57.668Z" /></g><g transform="matrix(1,0,0,1,48.778,100.901)"><path fill="#bbbdbf" d="M23.125,-9.297C23.125,-9.297,-21.096,16.147,-21.096,16.147C-21.096,16.147,-23.125,9.297,-23.125,9.297C-23.125,9.297,21.096,-16.147,21.096,-16.147C21.096,-16.147,23.125,-9.297,23.125,-9.297Z" /></g><g transform="matrix(1,0,0,1,46.851,97.083)"><path fill="#d0d2d3" d="M23.044,-12.332C23.044,-12.332,-21.177,13.112,-21.177,13.112C-21.177,13.112,-23.044,12.332,-23.044,12.332C-23.044,12.332,21.177,-13.112,21.177,-13.112C21.177,-13.112,23.044,-12.332,23.044,-12.332Z" /></g><g transform="matrix(1,0,0,1,96.502,54.653)"><path fill="#a6a8ab" d="M-54.612,-21.955C-54.612,-21.955,49.819,38.133,49.819,38.133C49.819,38.133,54.612,21.955,54.612,21.955C54.612,21.955,-49.819,-38.133,-49.819,-38.133C-49.819,-38.133,-54.612,-21.955,-54.612,-21.955Z" /></g><g transform="matrix(1,0,0,1,101.052,45.636)"><path fill="#bbbdbf" d="M-54.421,-29.123C-54.421,-29.123,50.01,30.965,50.01,30.965C50.01,30.965,54.421,29.122,54.421,29.122C54.421,29.122,-50.011,-30.965,-50.011,-30.965C-50.011,-30.965,-54.421,-29.123,-54.421,-29.123Z" /></g><g transform="matrix(1,0,0,1,28.557,82.956)"><path fill="#bbbdbf" d="M20.801,-77.5C20.801,-77.5,11.977,-82.088,11.977,-82.088C11.977,-82.088,9.036,-81.471,9.036,-81.471C9.036,-81.471,-20.801,77.5,-20.801,77.5C-20.801,77.5,-11.977,82.088,-11.977,82.088C-11.977,82.088,-9.036,81.471,-9.036,81.471C-9.036,81.471,20.801,-77.5,20.801,-77.5Z" /></g><g transform="matrix(1,0,0,1,27.087,83.265)"><path fill="#d0d2d3" d="M19.33,-77.192C19.33,-77.192,10.507,-81.779,10.507,-81.779C10.507,-81.779,-19.33,77.191,-19.33,77.191C-19.33,77.191,-10.507,81.779,-10.507,81.779C-10.507,81.779,19.33,-77.192,19.33,-77.192Z" /></g><g transform="matrix(1,0,0,1,175.818,126.729)"><path fill="#bbbdbf" d="M-11.787,-57.977C-11.787,-57.977,-20.611,-62.565,-20.611,-62.565C-20.611,-62.565,-23.553,-61.948,-23.553,-61.948C-23.553,-61.948,11.788,57.976,11.788,57.976C11.788,57.976,20.611,62.565,20.611,62.565C20.611,62.565,23.553,61.947,23.553,61.947C23.553,61.947,-11.787,-57.977,-11.787,-57.977Z" /></g><g transform="matrix(1,0,0,1,174.348,127.038)"><path fill="#a6a8ab" d="M-13.258,-57.668C-13.258,-57.668,-22.082,-62.256,-22.082,-62.256C-22.082,-62.256,13.259,57.667,13.259,57.667C13.259,57.667,22.082,62.256,22.082,62.256C22.082,62.256,-13.258,-57.668,-13.258,-57.668Z" /></g><g transform="matrix(1,0,0,1,160.51,164.815)"><path fill="#bbbdbf" d="M23.125,-9.296C23.125,-9.296,-21.096,16.147,-21.096,16.147C-21.096,16.147,-23.125,9.297,-23.125,9.297C-23.125,9.297,21.096,-16.147,21.096,-16.147C21.096,-16.147,23.125,-9.296,23.125,-9.296Z" /></g><g transform="matrix(1,0,0,1,163.353,165.126)"><path fill="#d0d2d3" d="M18.275,-16.461C18.275,-16.461,-25.946,8.982,-25.946,8.982C-25.946,8.982,-18.274,16.461,-18.274,16.461C-18.274,16.461,25.946,-8.983,25.946,-8.983C25.946,-8.983,18.275,-16.461,18.275,-16.461Z" /></g><g transform="matrix(1,0,0,1,140.29,146.87)"><path fill="#bbbdbf" d="M20.801,-77.5C20.801,-77.5,11.977,-82.088,11.977,-82.088C11.977,-82.088,9.035,-81.471,9.035,-81.471C9.035,-81.471,-20.801,77.5,-20.801,77.5C-20.801,77.5,-11.978,82.088,-11.978,82.088C-11.978,82.088,-9.036,81.471,-9.036,81.471C-9.036,81.471,20.801,-77.5,20.801,-77.5Z" /></g><g transform="matrix(1,0,0,1,138.819,147.179)"><path fill="#d0d2d3" d="M19.33,-77.192C19.33,-77.192,10.506,-81.779,10.506,-81.779C10.506,-81.779,-19.33,77.191,-19.33,77.191C-19.33,77.191,-10.507,81.779,-10.507,81.779C-10.507,81.779,19.33,-77.192,19.33,-77.192Z" /></g><g transform="matrix(1,0,0,1,77.91,154.075)"><path fill="#d66d00" d="M77.66,21.475C77.66,21.475,70.45,60.935,70.45,60.935C70.45,60.935,67.45,61.635,67.45,61.635C67.45,61.635,-77.66,-21.465,-77.66,-21.465C-77.66,-21.465,-70.45,-60.925,-70.45,-60.925C-70.45,-60.925,-67.45,-61.635,-67.45,-61.635C-67.45,-61.635,-58.04,-56.245,-58.04,-56.245C-58.04,-56.245,77.66,21.475,77.66,21.475Z" /></g><g transform="matrix(1,0,0,1,76.41,154.43)"><path fill="#f6921e" d="M76.15,21.83C76.15,21.83,71.86,45.33,71.86,45.33C71.86,45.33,68.95,61.28,68.95,61.28C68.95,61.28,46.6,48.48,46.6,48.48C46.6,48.48,16,30.96,16,30.96C16,30.96,-14.86,13.28,-14.86,13.28C-14.86,13.28,-45.68,-4.37,-45.68,-4.37C-45.68,-4.37,-76.15,-21.82,-76.15,-21.82C-76.15,-21.82,-68.95,-61.28,-68.95,-61.28C-68.95,-61.28,-59.53,-55.89,-59.53,-55.89C-59.53,-55.89,-28.71,-38.23,-28.71,-38.23C-28.71,-38.23,2.15,-20.56,2.15,-20.56C2.15,-20.56,32.75,-3.03,32.75,-3.03C32.75,-3.03,63.61,14.641,63.61,14.641C63.61,14.641,76.15,21.83,76.15,21.83Z" /></g><g transform="matrix(1,0,0,1,15.495,121.605)"><path fill="#191717" d="M15.235,28.455C15.235,28.455,-15.235,11.005,-15.235,11.005C-15.235,11.005,-8.036,-28.455,-8.036,-28.455C-8.036,-28.455,1.385,-23.065,1.385,-23.065C1.385,-23.065,15.235,28.455,15.235,28.455Z" /></g><g transform="matrix(1,0,0,1,70.055,150.795)"><path fill="#191717" d="M22.355,34.595C22.355,34.595,-8.505,16.915,-8.505,16.915C-8.505,16.915,-22.355,-34.595,-22.355,-34.595C-22.355,-34.595,8.505,-16.925,8.505,-16.925C8.505,-16.925,22.355,34.595,22.355,34.595Z" /></g><g transform="matrix(1,0,0,1,128.715,183.555)"><path fill="#191717" d="M19.555,16.205C19.555,16.205,16.645,32.155,16.645,32.155C16.645,32.155,-5.705,19.355,-5.705,19.355C-5.705,19.355,-19.555,-32.155,-19.555,-32.155C-19.555,-32.155,11.305,-14.484,11.305,-14.484C11.305,-14.484,19.555,16.205,19.555,16.205Z" /></g><g transform="matrix(1,0,0,1,57.174,96.957)"><path fill="#070707" d="M-16.925,-8.487C-16.925,-8.487,-13.925,-9.193,-13.925,-9.193C-13.925,-9.193,16.925,8.48,16.925,8.48C16.925,8.48,13.933,9.193,13.933,9.193C13.933,9.193,-16.925,-8.487,-16.925,-8.487Z" /></g><g transform="matrix(1,0,0,1,118.621,132.151)"><path fill="#070707" d="M-16.925,-8.487C-16.925,-8.487,-13.925,-9.193,-13.925,-9.193C-13.925,-9.193,16.925,8.48,16.925,8.48C16.925,8.48,13.932,9.193,13.932,9.193C13.932,9.193,-16.925,-8.487,-16.925,-8.487Z" /></g><g transform="matrix(1,0,0,1,91.005,82.647)"><path fill="#d66d00" d="M-79.589,-10.845C-79.589,-10.845,65.518,72.256,65.518,72.256C65.518,72.256,68.518,71.55,68.518,71.55C68.518,71.55,79.589,10.844,79.589,10.844C79.589,10.844,-65.519,-72.256,-65.519,-72.256C-65.519,-72.256,-68.519,-71.55,-68.519,-71.55C-68.519,-71.55,-79.589,-10.845,-79.589,-10.845Z" /></g><g transform="matrix(1,0,0,1,89.505,83)"><path fill="#f6921e" d="M78.085,11.2C78.085,11.2,69.925,55.95,69.925,55.95C69.925,55.95,67.015,71.9,67.015,71.9C67.015,71.9,44.665,59.1,44.665,59.1C44.665,59.1,14.065,41.58,14.065,41.58C14.065,41.58,-16.795,23.9,-16.795,23.9C-16.795,23.9,-47.615,6.25,-47.615,6.25C-47.615,6.25,-78.085,-11.2,-78.085,-11.2C-78.085,-11.2,-67.665,-68.33,-67.665,-68.33C-67.665,-68.33,-67.015,-71.9,-67.015,-71.9C-67.015,-71.9,-38.095,-55.34,-38.095,-55.34C-38.095,-55.34,-7.235,-37.66,-7.235,-37.66C-7.235,-37.66,23.355,-20.14,23.355,-20.14C23.355,-20.14,54.215,-2.47,54.215,-2.47C54.215,-2.47,78.085,11.2,78.085,11.2Z" /></g><g transform="matrix(1,0,0,1,26.655,51.96)"><path fill="#191717" d="M15.235,37.29C15.235,37.29,-15.235,19.84,-15.235,19.84C-15.235,19.84,-4.815,-37.29,-4.815,-37.29C-4.815,-37.29,15.235,37.29,15.235,37.29Z" /></g><g transform="matrix(1,0,0,1,77.49,76.12)"><path fill="#191717" d="M26.08,48.46C26.08,48.46,-4.78,30.78,-4.78,30.78C-4.78,30.78,-26.08,-48.46,-26.08,-48.46C-26.08,-48.46,4.78,-30.78,4.78,-30.78C4.78,-30.78,26.08,48.46,26.08,48.46Z" /></g><g transform="matrix(1,0,0,1,136.145,108.88)"><path fill="#191717" d="M23.285,30.07C23.285,30.07,20.375,46.02,20.375,46.02C20.375,46.02,-1.975,33.22,-1.975,33.22C-1.975,33.22,-23.285,-46.02,-23.285,-46.02C-23.285,-46.02,7.575,-28.35,7.575,-28.35C7.575,-28.35,23.285,30.07,23.285,30.07Z" /></g><g transform="matrix(1,0,0,1,68.337,36.148)"><path fill="#070707" d="M-16.925,-8.487C-16.925,-8.487,-13.925,-9.193,-13.925,-9.193C-13.925,-9.193,16.925,8.482,16.925,8.482C16.925,8.482,13.933,9.193,13.933,9.193C13.933,9.193,-16.925,-8.487,-16.925,-8.487Z" /></g><g transform="matrix(1,0,0,1,129.784,71.342)"><path fill="#070707" d="M-16.925,-8.486C-16.925,-8.486,-13.925,-9.192,-13.925,-9.192C-13.925,-9.192,16.925,8.481,16.925,8.481C16.925,8.481,13.933,9.192,13.933,9.192C13.933,9.192,-16.925,-8.486,-16.925,-8.486Z" /></g><g transform="matrix(1,0,0,1,159.471,146.561)"><path fill="#070707" d="M-2.95,8.339C-2.95,8.339,0.05,7.633,0.05,7.633C0.05,7.633,2.95,-8.339,2.95,-8.339C2.95,-8.339,-0.041,-7.611,-0.041,-7.611C-0.041,-7.611,-2.95,8.339,-2.95,8.339Z" /></g><g transform="matrix(1,0,0,1,64.623,124.685)"><path fill="#070707" d="M-16.925,-8.487C-16.925,-8.487,-13.925,-9.193,-13.925,-9.193C-13.925,-9.193,16.925,8.48,16.925,8.48C16.925,8.48,13.932,9.193,13.932,9.193C13.932,9.193,-16.925,-8.487,-16.925,-8.487Z" /></g><g transform="matrix(1,0,0,1,13.665,95.49)"><path fill="#070707" d="M6.205,2.34C6.205,2.34,3.215,3.05,3.215,3.05C3.215,3.05,-6.205,-2.34,-6.205,-2.34C-6.205,-2.34,-3.205,-3.05,-3.205,-3.05C-3.205,-3.05,6.205,2.34,6.205,2.34Z" /></g><g transform="matrix(1,0,0,1,126.09,159.877)"><path fill="#070707" d="M-16.925,-8.487C-16.925,-8.487,-13.925,-9.193,-13.925,-9.193C-13.925,-9.193,16.925,8.482,16.925,8.482C16.925,8.482,13.933,9.193,13.933,9.193C13.933,9.193,-16.925,-8.487,-16.925,-8.487Z" /></g><g transform="matrix(1,0,0,1,148.319,207.371)"><path fill="#070707" d="M-2.95,8.339C-2.95,8.339,0.05,7.633,0.05,7.633C0.05,7.633,2.95,-8.339,2.95,-8.339C2.95,-8.339,-0.041,-7.611,-0.041,-7.611C-0.041,-7.611,-2.95,8.339,-2.95,8.339Z" /></g></g><g transform="matrix(2.258,0,0,2.258,10.543,526.755)"><g transform="matrix(1,0,0,1,203.474,94.1)"><path fill="#000000" fill-opacity="0.1" d="M29.976,-1.426C31.839,-0.351,31.695,1.481,29.958,2.565C29.566,2.81,29.156,3.031,28.757,3.263C26.715,4.45,24.674,5.637,22.632,6.822C17.383,9.873,12.203,13.044,6.885,15.973C5.983,16.471,3.631,17.366,1.245,17.595C-1.503,17.858,-4.177,18.023,-6.477,16.695C-10.977,14.097,-13.064,12.388,-17.565,9.789C-21.685,7.41,-25.835,5.077,-29.927,2.651C-30.877,2.089,-31.838,1.203,-31.444,-0.007C-31.175,-0.833,-30.401,-1.274,-29.695,-1.684C-28.011,-2.662,-26.329,-3.64,-24.645,-4.618C-24.645,-4.618,-8.648,-13.914,-8.648,-13.914C-7.064,-14.834,-5.485,-15.765,-3.896,-16.676C-1.677,-17.948,1.127,-18.023,3.383,-16.779C12.072,-11.984,20.588,-6.846,29.182,-1.884C29.447,-1.731,29.711,-1.579,29.976,-1.426Z" /></g><g transform="matrix(1,0,0,1,216.41,100.395)"><path fill="#d72727" d="M13.386,-9.738C13.381,-9.72,13.377,-9.703,13.37,-9.684C13.32,-9.538,13.243,-9.391,13.15,-9.25C13.133,-9.224,13.116,-9.198,13.097,-9.173C12.996,-9.031,12.873,-8.894,12.728,-8.763C12.637,-8.681,12.522,-8.607,12.414,-8.531C12.315,-8.46,12.23,-8.384,12.116,-8.319C12.116,-8.319,-13.455,6.542,-13.455,6.542C-13.455,6.542,-13.466,10.216,-13.466,10.216C-13.466,10.216,12.106,-4.643,12.106,-4.643C12.125,-4.655,12.143,-4.667,12.162,-4.677C12.254,-4.733,12.321,-4.797,12.403,-4.855C12.511,-4.932,12.627,-5.008,12.718,-5.09C12.726,-5.096,12.738,-5.102,12.746,-5.109C12.855,-5.21,12.951,-5.314,13.035,-5.421C13.055,-5.446,13.069,-5.472,13.087,-5.499C13.106,-5.524,13.122,-5.551,13.139,-5.576C13.167,-5.618,13.199,-5.657,13.223,-5.699C13.272,-5.787,13.314,-5.876,13.348,-5.966C13.353,-5.98,13.355,-5.996,13.36,-6.009C13.366,-6.028,13.37,-6.046,13.375,-6.063C13.393,-6.119,13.412,-6.174,13.424,-6.23C13.442,-6.32,13.452,-6.41,13.454,-6.5C13.455,-6.513,13.455,-6.528,13.455,-6.543C13.455,-6.543,13.466,-10.216,13.466,-10.216C13.465,-10.055,13.435,-9.896,13.386,-9.738Z" /></g><g transform="matrix(1,0,0,1,186.094,100.775)"><path fill="#ee3a24" d="M16.861,6.162C16.584,6.322,16.272,6.45,15.949,6.562C15.834,6.601,15.715,6.636,15.596,6.669C15.443,6.712,15.289,6.753,15.13,6.785C14.941,6.824,14.75,6.859,14.555,6.884C14.51,6.89,14.466,6.897,14.421,6.902C14.161,6.93,13.898,6.943,13.633,6.945C13.591,6.946,13.549,6.946,13.507,6.946C13.247,6.944,12.988,6.931,12.731,6.903C12.693,6.899,12.653,6.895,12.615,6.891C12.36,6.86,12.108,6.817,11.863,6.763C11.819,6.753,11.776,6.741,11.732,6.73C11.51,6.676,11.296,6.61,11.089,6.535C11.049,6.521,11.007,6.51,10.968,6.495C10.719,6.398,10.481,6.289,10.261,6.162C10.261,6.162,-15.477,-8.698,-15.477,-8.698C-16.164,-9.095,-16.593,-9.587,-16.764,-10.103C-16.821,-10.275,-16.849,-10.448,-16.848,-10.623C-16.848,-10.623,-16.859,-6.948,-16.859,-6.948C-16.861,-6.251,-16.404,-5.552,-15.488,-5.024C-15.488,-5.024,10.251,9.837,10.251,9.837C10.459,9.957,10.683,10.063,10.917,10.156C10.931,10.161,10.944,10.165,10.958,10.17C10.997,10.184,11.038,10.196,11.078,10.211C11.211,10.258,11.342,10.307,11.481,10.347C11.559,10.368,11.641,10.386,11.721,10.405C11.765,10.416,11.809,10.428,11.854,10.437C11.892,10.446,11.928,10.457,11.967,10.466C12.12,10.497,12.276,10.524,12.432,10.546C12.489,10.555,12.547,10.558,12.604,10.565C12.643,10.57,12.682,10.574,12.721,10.579C12.777,10.584,12.833,10.593,12.889,10.598C13.043,10.61,13.197,10.618,13.352,10.622C13.401,10.623,13.448,10.621,13.497,10.621C13.539,10.622,13.581,10.621,13.623,10.621C13.693,10.62,13.764,10.622,13.835,10.62C14.009,10.614,14.182,10.602,14.355,10.585C14.374,10.583,14.392,10.579,14.411,10.577C14.456,10.572,14.5,10.564,14.546,10.558C14.682,10.542,14.818,10.526,14.953,10.502C15.01,10.491,15.062,10.473,15.119,10.461C15.278,10.428,15.431,10.388,15.585,10.345C15.668,10.321,15.756,10.308,15.837,10.282C15.874,10.27,15.903,10.25,15.939,10.237C16.262,10.125,16.573,9.998,16.85,9.837C16.85,9.837,16.861,6.162,16.861,6.162Z" /></g><g transform="matrix(1,0,0,1,199.561,90.165)"><path fill="#ee3a24" d="M28.944,-1.912C30.763,-0.861,30.773,0.861,28.965,1.912C28.965,1.912,3.394,16.773,3.394,16.773C1.587,17.822,-1.386,17.822,-3.205,16.773C-3.205,16.773,-28.944,1.912,-28.944,1.912C-30.763,0.861,-30.773,-0.861,-28.965,-1.911C-28.965,-1.911,-3.394,-16.77,-3.394,-16.77C-1.586,-17.821,1.386,-17.821,3.205,-16.771C3.205,-16.771,28.944,-1.912,28.944,-1.912Z" /></g><g transform="matrix(1,0,0,1,186.177,90.165)"><path fill="#f2755c" d="M10.592,14.613C10.592,14.613,-11.835,1.665,-11.835,1.665C-13.42,0.75,-13.429,-0.749,-11.854,-1.664C-11.854,-1.664,10.428,-14.613,10.428,-14.613C-1.042,-8.936,-0.979,-5.401,-1.674,-2.525C-2.887,2.5,2.532,5.458,6.792,6.467C8.856,6.955,11.138,7.584,12.182,9.102C13.428,10.918,12.722,13.902,10.592,14.613Z" /></g><g transform="matrix(1,0,0,1,199.569,69.487)"><path fill="#d72727" d="M16.783,17.367C16.783,17.367,16.797,17.367,16.797,17.367C16.764,17.152,16.731,16.937,16.681,16.722C16.681,16.722,7.508,-24.647,7.508,-24.647C7.508,-24.647,7.409,-25.06,7.409,-25.06C7.128,-25.886,6.45,-26.68,5.343,-27.308C5.128,-27.423,4.913,-27.539,4.682,-27.638C4.682,-27.638,4.62,-27.638,4.62,-27.638C1.882,-28.885,-1.98,-28.887,-4.706,-27.638C-4.937,-27.539,-5.152,-27.423,-5.367,-27.308C-6.474,-26.68,-7.152,-25.886,-7.433,-25.06C-7.433,-25.06,-7.532,-24.647,-7.532,-24.647C-7.532,-24.647,-16.705,16.722,-16.705,16.722C-16.754,16.937,-16.787,17.152,-16.821,17.367C-17.184,20.127,-15.548,22.953,-11.895,25.068C-5.284,28.887,5.376,28.887,11.954,25.068C15.583,22.958,17.184,20.124,16.783,17.367Z" /></g><g transform="matrix(1,0,0,1,194.76,69.219)"><path fill="#ee3a24" d="M12.318,-24.378C12.318,-24.378,12.218,-24.791,12.218,-24.791C11.938,-25.618,11.26,-26.411,10.152,-27.039C9.938,-27.154,9.723,-27.271,9.491,-27.37C9.491,-27.37,9.429,-27.37,9.429,-27.37C6.691,-28.616,2.83,-28.618,0.104,-27.37C-0.127,-27.271,-0.343,-27.154,-0.557,-27.039C-1.664,-26.411,-2.342,-25.618,-2.623,-24.791C-2.623,-24.791,-2.723,-24.378,-2.723,-24.378C-2.723,-24.378,-6.85,-5.761,-6.85,-5.761C-6.85,-5.761,-11.895,16.991,-11.895,16.991C-11.945,17.206,-11.978,17.421,-12.011,17.636C-12.374,20.395,-10.738,23.222,-7.086,25.337C-2.954,27.724,2.76,28.618,8.07,28.021C8.07,28.021,8.07,-19.144,8.07,-19.144C8.07,-19.144,7.954,-19.903,8.699,-20.109C10.868,-20.711,12.374,-22.948,12.318,-24.378Z" /></g><g transform="matrix(1,0,0,1,199.74,45.147)"><path fill="#d72727" d="M3.205,2.08C2.274,2.624,1.051,2.895,-0.182,2.895C-1.395,2.895,-2.618,2.624,-3.548,2.08C-4.604,1.475,-5.064,0.649,-4.939,-0.146C-4.939,-0.146,-4.876,-0.407,-4.876,-0.407C-4.698,-0.93,-4.27,-1.432,-3.569,-1.829C-3.433,-1.902,-3.297,-1.975,-3.151,-2.037C-1.28,-2.895,1.449,-2.833,3.184,-1.829C5.055,-0.753,5.065,1.004,3.205,2.08Z" /></g><g transform="matrix(1,0,0,1,199.559,74.12)"><path fill="#ffffff" d="M14.66,2.933C14.115,4.537,12.759,6.074,10.611,7.329C4.793,10.718,-4.661,10.718,-10.528,7.329C-12.694,6.057,-14.082,4.52,-14.66,2.901C-14.66,2.901,-11.636,-10.718,-11.636,-10.718C-11.305,-10.47,-10.925,-10.239,-10.528,-10.007C-4.661,-6.62,4.793,-6.62,10.627,-10.007C10.991,-10.222,11.338,-10.437,11.652,-10.669C11.652,-10.669,14.66,2.933,14.66,2.933Z" /></g><g transform="matrix(1,0,0,1,195.827,46.252)"><path fill="#f2755c" d="M-3.25,-2.088C-3.25,-2.088,-2.309,-3.455,-1.471,-3.014C-0.632,-2.572,-1.5,-2.25,-1.765,-1.721C-2.029,-1.192,-2.408,1.13,0.328,1.619C3.062,2.107,4,2.956,2.926,3.118C0.686,3.455,-1.706,2.408,-2.853,1.133C-4,-0.143,-3.562,-1.397,-3.25,-2.088Z" /></g><g transform="matrix(1,0,0,1,137.918,75.059)"><path fill="#000000" fill-opacity="0.1" d="M29.976,-1.426C31.839,-0.351,31.696,1.48,29.958,2.565C29.566,2.81,29.157,3.031,28.758,3.263C26.716,4.449,24.675,5.636,22.633,6.822C17.384,9.873,12.203,13.044,6.886,15.973C5.983,16.47,3.631,17.366,1.245,17.595C-1.503,17.857,-4.176,18.024,-6.476,16.696C-10.977,14.097,-13.065,12.387,-17.565,9.789C-21.685,7.41,-25.835,5.077,-29.927,2.651C-30.877,2.089,-31.839,1.203,-31.444,-0.006C-31.175,-0.832,-30.401,-1.273,-29.695,-1.683C-28.011,-2.661,-26.328,-3.64,-24.644,-4.618C-24.644,-4.618,-8.648,-13.914,-8.648,-13.914C-7.064,-14.835,-5.485,-15.765,-3.897,-16.676C-1.677,-17.948,1.128,-18.024,3.384,-16.779C12.073,-11.985,20.587,-6.846,29.182,-1.884C29.447,-1.732,29.711,-1.578,29.976,-1.426Z" /></g><g transform="matrix(1,0,0,1,150.855,81.354)"><path fill="#d72727" d="M13.386,-9.738C13.38,-9.719,13.377,-9.702,13.37,-9.684C13.32,-9.537,13.243,-9.392,13.15,-9.251C13.133,-9.224,13.116,-9.198,13.097,-9.173C12.995,-9.032,12.873,-8.894,12.728,-8.763C12.637,-8.681,12.521,-8.608,12.414,-8.531C12.315,-8.46,12.23,-8.384,12.116,-8.319C12.116,-8.319,-13.455,6.541,-13.455,6.541C-13.455,6.541,-13.466,10.217,-13.466,10.217C-13.466,10.217,12.106,-4.644,12.106,-4.644C12.125,-4.655,12.143,-4.666,12.162,-4.676C12.254,-4.732,12.32,-4.797,12.403,-4.855C12.511,-4.932,12.627,-5.007,12.718,-5.089C12.726,-5.096,12.738,-5.102,12.746,-5.11C12.855,-5.21,12.951,-5.314,13.035,-5.42C13.054,-5.445,13.069,-5.472,13.087,-5.498C13.106,-5.523,13.122,-5.55,13.139,-5.576C13.167,-5.617,13.199,-5.657,13.222,-5.699C13.272,-5.787,13.314,-5.876,13.347,-5.966C13.353,-5.98,13.355,-5.995,13.36,-6.009C13.366,-6.027,13.37,-6.045,13.375,-6.062C13.393,-6.118,13.412,-6.174,13.424,-6.23C13.441,-6.32,13.452,-6.41,13.454,-6.5C13.455,-6.514,13.455,-6.528,13.455,-6.542C13.455,-6.542,13.466,-10.217,13.466,-10.217C13.465,-10.056,13.435,-9.896,13.386,-9.738Z" /></g><g transform="matrix(1,0,0,1,120.539,81.734)"><path fill="#ee3a24" d="M16.861,6.161C16.584,6.322,16.272,6.45,15.949,6.561C15.834,6.601,15.715,6.636,15.596,6.669C15.443,6.712,15.289,6.753,15.13,6.785C14.941,6.824,14.749,6.859,14.555,6.884C14.51,6.889,14.466,6.897,14.421,6.902C14.161,6.93,13.897,6.943,13.633,6.945C13.591,6.945,13.549,6.946,13.507,6.946C13.247,6.944,12.987,6.93,12.731,6.903C12.692,6.899,12.654,6.894,12.615,6.89C12.361,6.86,12.108,6.817,11.863,6.762C11.818,6.752,11.775,6.74,11.731,6.729C11.51,6.676,11.297,6.61,11.089,6.535C11.049,6.52,11.007,6.51,10.968,6.494C10.719,6.398,10.481,6.288,10.261,6.161C10.261,6.161,-15.478,-8.699,-15.478,-8.699C-16.164,-9.095,-16.593,-9.587,-16.764,-10.103C-16.821,-10.275,-16.849,-10.449,-16.848,-10.623C-16.848,-10.623,-16.859,-6.948,-16.859,-6.948C-16.861,-6.251,-16.404,-5.553,-15.488,-5.024C-15.488,-5.024,10.251,9.837,10.251,9.837C10.459,9.957,10.683,10.062,10.917,10.155C10.93,10.161,10.944,10.164,10.958,10.17C10.997,10.184,11.038,10.196,11.078,10.21C11.21,10.258,11.342,10.307,11.48,10.346C11.559,10.368,11.64,10.385,11.721,10.405C11.765,10.416,11.809,10.427,11.854,10.437C11.892,10.446,11.928,10.457,11.967,10.465C12.12,10.497,12.276,10.523,12.432,10.546C12.489,10.554,12.547,10.558,12.604,10.565C12.643,10.57,12.682,10.574,12.721,10.578C12.777,10.584,12.833,10.593,12.889,10.597C13.043,10.609,13.197,10.618,13.352,10.622C13.401,10.623,13.448,10.621,13.496,10.621C13.539,10.621,13.581,10.621,13.623,10.62C13.693,10.62,13.763,10.622,13.833,10.619C14.008,10.613,14.182,10.601,14.355,10.585C14.374,10.583,14.392,10.579,14.41,10.577C14.456,10.572,14.499,10.564,14.544,10.558C14.681,10.541,14.818,10.525,14.953,10.502C15.01,10.491,15.062,10.472,15.119,10.46C15.278,10.428,15.431,10.388,15.585,10.345C15.668,10.321,15.756,10.307,15.837,10.281C15.873,10.269,15.902,10.249,15.939,10.236C16.262,10.125,16.573,9.997,16.85,9.837C16.85,9.837,16.861,6.161,16.861,6.161Z" /></g><g transform="matrix(1,0,0,1,134.006,71.124)"><path fill="#ee3a24" d="M28.944,-1.912C30.763,-0.861,30.773,0.861,28.965,1.911C28.965,1.911,3.394,16.771,3.394,16.771C1.587,17.821,-1.386,17.821,-3.205,16.771C-3.205,16.771,-28.944,1.911,-28.944,1.911C-30.763,0.861,-30.772,-0.861,-28.965,-1.912C-28.965,-1.912,-3.393,-16.771,-3.393,-16.771C-1.586,-17.821,1.385,-17.821,3.204,-16.771C3.204,-16.771,28.944,-1.912,28.944,-1.912Z" /></g><g transform="matrix(1,0,0,1,120.622,71.124)"><path fill="#f2755c" d="M10.592,14.613C10.592,14.613,-11.835,1.667,-11.835,1.667C-13.42,0.752,-13.429,-0.749,-11.854,-1.664C-11.854,-1.664,10.426,-14.613,10.426,-14.613C-1.044,-8.935,-0.979,-5.4,-1.674,-2.525C-2.887,2.5,2.531,5.459,6.792,6.467C8.856,6.955,11.139,7.585,12.182,9.103C13.429,10.918,12.721,13.903,10.592,14.613Z" /></g><g transform="matrix(1,0,0,1,134.014,50.446)"><path fill="#d72727" d="M16.783,17.366C16.783,17.366,16.796,17.366,16.796,17.366C16.763,17.151,16.73,16.936,16.68,16.721C16.68,16.721,7.508,-24.647,7.508,-24.647C7.508,-24.647,7.408,-25.061,7.408,-25.061C7.128,-25.887,6.45,-26.68,5.343,-27.308C5.128,-27.424,4.913,-27.539,4.681,-27.639C4.681,-27.639,4.619,-27.639,4.619,-27.639C1.881,-28.885,-1.981,-28.887,-4.706,-27.639C-4.938,-27.539,-5.153,-27.424,-5.367,-27.308C-6.475,-26.68,-7.153,-25.887,-7.433,-25.061C-7.433,-25.061,-7.532,-24.647,-7.532,-24.647C-7.532,-24.647,-16.704,16.721,-16.704,16.721C-16.754,16.936,-16.788,17.151,-16.821,17.366C-17.185,20.127,-15.549,22.953,-11.896,25.068C-5.285,28.887,5.376,28.887,11.953,25.068C15.582,22.957,17.185,20.124,16.783,17.366Z" /></g><g transform="matrix(1,0,0,1,129.205,50.178)"><path fill="#ee3a24" d="M12.318,-24.379C12.318,-24.379,12.218,-24.792,12.218,-24.792C11.937,-25.618,11.259,-26.411,10.152,-27.039C9.937,-27.155,9.723,-27.271,9.492,-27.37C9.492,-27.37,9.43,-27.37,9.43,-27.37C6.691,-28.616,2.83,-28.618,0.104,-27.37C-0.127,-27.271,-0.342,-27.155,-0.557,-27.039C-1.664,-26.411,-2.343,-25.618,-2.624,-24.792C-2.624,-24.792,-2.723,-24.379,-2.723,-24.379C-2.723,-24.379,-6.85,-5.761,-6.85,-5.761C-6.85,-5.761,-11.896,16.99,-11.896,16.99C-11.946,17.205,-11.978,17.42,-12.012,17.635C-12.375,20.395,-10.738,23.222,-7.085,25.337C-2.953,27.723,2.76,28.618,8.07,28.021C8.07,28.021,8.07,-19.144,8.07,-19.144C8.07,-19.144,7.954,-19.903,8.699,-20.11C10.868,-20.712,12.375,-22.948,12.318,-24.379Z" /></g><g transform="matrix(1,0,0,1,134.185,26.106)"><path fill="#d72727" d="M3.204,2.08C2.274,2.624,1.051,2.895,-0.183,2.895C-1.396,2.895,-2.619,2.624,-3.549,2.08C-4.605,1.474,-5.065,0.649,-4.939,-0.146C-4.939,-0.146,-4.877,-0.407,-4.877,-0.407C-4.699,-0.93,-4.27,-1.433,-3.57,-1.829C-3.434,-1.902,-3.298,-1.975,-3.151,-2.037C-1.28,-2.895,1.448,-2.833,3.183,-1.829C5.055,-0.753,5.065,1.004,3.204,2.08Z" /></g><g transform="matrix(1,0,0,1,134.004,55.078)"><path fill="#ffffff" d="M14.66,2.933C14.115,4.537,12.76,6.074,10.611,7.329C4.793,10.718,-4.661,10.718,-10.528,7.329C-12.694,6.057,-14.082,4.52,-14.66,2.9C-14.66,2.9,-11.635,-10.718,-11.635,-10.718C-11.305,-10.47,-10.925,-10.24,-10.528,-10.008C-4.661,-6.62,4.793,-6.62,10.627,-10.008C10.991,-10.223,11.338,-10.438,11.652,-10.67C11.652,-10.67,14.66,2.933,14.66,2.933Z" /></g><g transform="matrix(1,0,0,1,130.272,27.211)"><path fill="#f2755c" d="M-3.25,-2.088C-3.25,-2.088,-2.309,-3.455,-1.471,-3.014C-0.633,-2.572,-1.5,-2.25,-1.765,-1.721C-2.03,-1.192,-2.408,1.129,0.327,1.618C3.062,2.107,4,2.956,2.926,3.117C0.686,3.455,-1.706,2.408,-2.853,1.132C-4,-0.144,-3.563,-1.398,-3.25,-2.088Z" /></g><g transform="matrix(1,0,0,1,34.936,53.75)"><path fill="#000000" fill-opacity="0.1" d="M29.976,-1.426C31.839,-0.351,31.696,1.48,29.958,2.565C29.567,2.81,29.157,3.031,28.758,3.262C28.758,3.262,22.633,6.822,22.633,6.822C17.384,9.873,12.203,13.044,6.885,15.973C5.982,16.47,3.631,17.366,1.245,17.595C-1.503,17.857,-4.177,18.024,-6.477,16.696C-10.978,14.097,-13.065,12.387,-17.566,9.789C-21.686,7.41,-25.836,5.077,-29.928,2.651C-30.878,2.089,-31.839,1.203,-31.445,-0.006C-31.176,-0.832,-30.401,-1.273,-29.695,-1.683C-28.011,-2.661,-26.329,-3.64,-24.645,-4.618C-19.313,-7.717,-13.98,-10.816,-8.648,-13.914C-7.064,-14.835,-5.486,-15.765,-3.898,-16.676C-1.678,-17.948,1.127,-18.024,3.383,-16.779C12.072,-11.985,20.588,-6.846,29.182,-1.884C29.447,-1.732,29.711,-1.578,29.976,-1.426Z" /></g><g transform="matrix(1,0,0,1,47.872,60.045)"><path fill="#d72727" d="M13.386,-9.738C13.38,-9.719,13.377,-9.702,13.37,-9.684C13.32,-9.537,13.243,-9.392,13.15,-9.251C13.133,-9.224,13.116,-9.199,13.097,-9.173C12.995,-9.032,12.873,-8.894,12.728,-8.763C12.637,-8.681,12.521,-8.608,12.414,-8.531C12.315,-8.461,12.23,-8.384,12.116,-8.319C12.116,-8.319,-13.455,6.541,-13.455,6.541C-13.455,6.541,-13.466,10.217,-13.466,10.217C-13.466,10.217,12.106,-4.644,12.106,-4.644C12.125,-4.655,12.143,-4.666,12.162,-4.677C12.254,-4.732,12.321,-4.797,12.403,-4.855C12.511,-4.932,12.627,-5.007,12.718,-5.089C12.726,-5.096,12.738,-5.102,12.746,-5.11C12.855,-5.21,12.951,-5.314,13.035,-5.421C13.055,-5.446,13.069,-5.472,13.087,-5.498C13.106,-5.523,13.122,-5.55,13.139,-5.576C13.167,-5.617,13.199,-5.657,13.223,-5.699C13.272,-5.787,13.314,-5.876,13.347,-5.966C13.353,-5.98,13.355,-5.995,13.36,-6.009C13.366,-6.027,13.37,-6.045,13.375,-6.062C13.393,-6.119,13.412,-6.174,13.424,-6.23C13.442,-6.32,13.452,-6.41,13.454,-6.501C13.455,-6.514,13.455,-6.528,13.455,-6.542C13.455,-6.542,13.466,-10.217,13.466,-10.217C13.465,-10.056,13.435,-9.896,13.386,-9.738Z" /></g><g transform="matrix(1,0,0,1,17.556,60.426)"><path fill="#ee3a24" d="M16.861,6.161C16.584,6.322,16.272,6.45,15.949,6.561C15.834,6.601,15.715,6.636,15.596,6.669C15.443,6.712,15.289,6.753,15.13,6.785C14.941,6.824,14.75,6.859,14.555,6.884C14.51,6.889,14.466,6.897,14.421,6.902C14.161,6.93,13.897,6.943,13.633,6.945C13.591,6.945,13.549,6.946,13.507,6.946C13.247,6.944,12.988,6.93,12.731,6.903C12.693,6.899,12.653,6.894,12.615,6.89C12.36,6.86,12.108,6.817,11.863,6.762C11.818,6.752,11.777,6.74,11.732,6.729C11.511,6.676,11.297,6.61,11.09,6.535C11.05,6.52,11.008,6.51,10.969,6.494C10.72,6.398,10.482,6.288,10.262,6.161C10.262,6.161,-15.478,-8.699,-15.478,-8.699C-16.164,-9.096,-16.593,-9.587,-16.764,-10.103C-16.821,-10.275,-16.849,-10.449,-16.848,-10.623C-16.848,-10.623,-16.859,-6.948,-16.859,-6.948C-16.861,-6.251,-16.404,-5.553,-15.488,-5.024C-15.488,-5.024,10.251,9.837,10.251,9.837C10.459,9.957,10.683,10.062,10.917,10.155C10.931,10.161,10.944,10.164,10.958,10.17C10.997,10.184,11.039,10.196,11.079,10.21C11.211,10.258,11.342,10.307,11.48,10.346C11.559,10.368,11.641,10.385,11.721,10.405C11.765,10.416,11.809,10.427,11.854,10.437C11.892,10.446,11.928,10.457,11.967,10.465C12.12,10.497,12.276,10.523,12.432,10.546C12.489,10.554,12.547,10.558,12.604,10.565C12.643,10.57,12.682,10.574,12.721,10.578C12.777,10.584,12.833,10.593,12.889,10.597C13.043,10.609,13.197,10.618,13.352,10.622C13.401,10.623,13.448,10.621,13.497,10.621C13.539,10.621,13.581,10.621,13.623,10.62C13.693,10.62,13.763,10.622,13.833,10.619C14.008,10.613,14.182,10.601,14.355,10.585C14.374,10.583,14.392,10.579,14.41,10.577C14.456,10.572,14.499,10.564,14.544,10.558C14.681,10.541,14.818,10.525,14.953,10.502C15.01,10.491,15.062,10.472,15.119,10.46C15.278,10.428,15.431,10.388,15.585,10.344C15.668,10.321,15.756,10.307,15.837,10.281C15.873,10.269,15.902,10.249,15.939,10.236C16.262,10.125,16.573,9.997,16.85,9.837C16.85,9.837,16.861,6.161,16.861,6.161Z" /></g><g transform="matrix(1,0,0,1,31.023,49.816)"><path fill="#ee3a24" d="M28.944,-1.912C30.763,-0.861,30.773,0.861,28.965,1.911C28.965,1.911,3.394,16.771,3.394,16.771C1.587,17.821,-1.386,17.821,-3.205,16.771C-3.205,16.771,-28.944,1.911,-28.944,1.911C-30.763,0.861,-30.773,-0.861,-28.966,-1.912C-28.966,-1.912,-3.394,-16.771,-3.394,-16.771C-1.587,-17.821,1.386,-17.821,3.205,-16.771C3.205,-16.771,28.944,-1.912,28.944,-1.912Z" /></g><g transform="matrix(1,0,0,1,17.639,49.815)"><path fill="#f2755c" d="M10.592,14.613C10.592,14.613,-11.835,1.667,-11.835,1.667C-13.42,0.751,-13.429,-0.749,-11.854,-1.664C-11.854,-1.664,10.426,-14.613,10.426,-14.613C-1.044,-8.935,-0.979,-5.4,-1.674,-2.525C-2.887,2.5,2.532,5.458,6.792,6.467C8.856,6.955,11.138,7.585,12.182,9.103C13.428,10.918,12.721,13.903,10.592,14.613Z" /></g><g transform="matrix(1,0,0,1,31.032,29.138)"><path fill="#d72727" d="M16.782,17.366C16.782,17.366,16.796,17.366,16.796,17.366C16.763,17.151,16.73,16.936,16.68,16.721C16.68,16.721,7.508,-24.648,7.508,-24.648C7.508,-24.648,7.408,-25.061,7.408,-25.061C7.128,-25.887,6.45,-26.68,5.343,-27.308C5.128,-27.424,4.913,-27.539,4.681,-27.639C4.681,-27.639,4.619,-27.639,4.619,-27.639C1.881,-28.885,-1.98,-28.887,-4.706,-27.639C-4.938,-27.539,-5.153,-27.424,-5.367,-27.308C-6.475,-26.68,-7.152,-25.887,-7.433,-25.061C-7.433,-25.061,-7.532,-24.648,-7.532,-24.648C-7.532,-24.648,-16.705,16.721,-16.705,16.721C-16.755,16.936,-16.788,17.151,-16.821,17.366C-17.184,20.127,-15.548,22.953,-11.896,25.068C-5.285,28.887,5.376,28.887,11.954,25.068C15.582,22.957,17.184,20.124,16.782,17.366Z" /></g><g transform="matrix(1,0,0,1,26.222,28.868)"><path fill="#ee3a24" d="M12.318,-24.379C12.318,-24.379,12.218,-24.792,12.218,-24.792C11.937,-25.618,11.259,-26.41,10.152,-27.038C9.937,-27.154,9.723,-27.271,9.492,-27.37C9.492,-27.37,9.43,-27.37,9.43,-27.37C6.691,-28.616,2.83,-28.619,0.104,-27.37C-0.127,-27.271,-0.342,-27.154,-0.557,-27.038C-1.664,-26.41,-2.343,-25.618,-2.624,-24.792C-2.624,-24.792,-2.723,-24.379,-2.723,-24.379C-2.723,-24.379,-6.85,-5.76,-6.85,-5.76C-6.85,-5.76,-11.896,16.991,-11.896,16.991C-11.946,17.206,-11.978,17.42,-12.012,17.635C-12.375,20.395,-10.738,23.222,-7.085,25.337C-2.953,27.723,2.76,28.619,8.07,28.022C8.07,28.022,8.07,-19.143,8.07,-19.143C8.07,-19.143,7.954,-19.902,8.699,-20.109C10.868,-20.711,12.375,-22.948,12.318,-24.379Z" /></g><g transform="matrix(1,0,0,1,31.202,4.797)"><path fill="#d72727" d="M3.204,2.08C2.274,2.624,1.051,2.895,-0.183,2.895C-1.395,2.895,-2.618,2.624,-3.549,2.08C-4.605,1.474,-5.065,0.649,-4.939,-0.146C-4.939,-0.146,-4.877,-0.407,-4.877,-0.407C-4.699,-0.93,-4.27,-1.433,-3.57,-1.829C-3.434,-1.902,-3.298,-1.975,-3.151,-2.038C-1.28,-2.895,1.448,-2.833,3.183,-1.829C5.055,-0.753,5.065,1.004,3.204,2.08Z" /></g><g transform="matrix(1,0,0,1,31.021,33.77)"><path fill="#ffffff" d="M14.66,2.933C14.115,4.537,12.76,6.074,10.611,7.329C4.793,10.718,-4.661,10.718,-10.528,7.329C-12.693,6.057,-14.082,4.52,-14.66,2.9C-14.66,2.9,-11.635,-10.718,-11.635,-10.718C-11.305,-10.471,-10.924,-10.24,-10.528,-10.008C-4.661,-6.62,4.793,-6.62,10.627,-10.008C10.991,-10.223,11.338,-10.438,11.652,-10.67C11.652,-10.67,14.66,2.933,14.66,2.933Z" /></g><g transform="matrix(1,0,0,1,27.289,5.903)"><path fill="#f2755c" d="M-3.25,-2.088C-3.25,-2.088,-2.309,-3.455,-1.471,-3.014C-0.632,-2.572,-1.5,-2.25,-1.765,-1.721C-2.029,-1.192,-2.408,1.129,0.327,1.618C3.062,2.107,4,2.956,2.926,3.117C0.686,3.455,-1.706,2.408,-2.853,1.132C-4,-0.144,-3.562,-1.398,-3.25,-2.088Z" /></g></g><g transform="matrix(2.258,0,0,2.258,230.644,72.238)"><g transform="matrix(1,0,0,1,25.544,29.421)"><path fill="#f9c269" d="M25.281,7.649C25.294,12.471,23.835,17.707,19.466,20.332C16.921,21.861,8.65,26.597,9.171,26.299C4.514,29.17,-1.315,27.346,-5.626,24.716C-9.833,22.149,-13.368,18.535,-16.251,14.565C-19.268,10.409,-21.648,5.746,-23.137,0.827C-24.566,-3.89,-25.293,-9.13,-24.108,-13.98C-23.26,-17.456,-21.366,-20.155,-18.284,-21.949C-18.284,-21.949,-10.557,-26.447,-10.557,-26.447C-8.069,-27.895,-5.734,-29.17,-2.724,-29.027C2.008,-28.802,6.352,-26.307,9.919,-23.341C17.888,-16.714,23.752,-6.433,25.04,3.889C25.196,5.139,25.281,6.389,25.281,7.649Z" /></g><g transform="matrix(1,0,0,1,20.559,31.849)"><path fill="#ffffac" d="M0.055,-19.187C9.274,-13.864,16.732,-0.953,16.702,9.641C16.672,20.242,9.166,24.513,-0.054,19.19C-9.279,13.863,-16.732,0.957,-16.702,-9.644C-16.672,-20.238,-9.171,-24.514,0.055,-19.187Z" /></g><g transform="matrix(1,0,0,1,41.309,34.46)"><path fill="#e2a854" d="M8.525,6.09C8.015,9.82,7.538,12.406,3.238,15.51C3.203,15.538,3.09,15.625,3.015,15.666C1.956,16.376,1.495,16.57,0.345,17.24C-2.035,18.62,-4.425,20.01,-6.805,21.39C-3.415,19.43,-1.775,15.58,-1.265,11.86C-0.275,4.62,-2.645,-2.98,-6.075,-9.29C-9.515,-15.63,0.275,-21.39,3.725,-15.05C7.145,-8.74,9.515,-1.14,8.525,6.09Z" /></g><g transform="matrix(1,0,0,1,25.544,29.421)"><path fill="#f9c269" d="M25.281,7.649C25.294,12.471,23.835,17.707,19.466,20.332C16.921,21.861,8.65,26.597,9.171,26.299C4.514,29.17,-1.315,27.346,-5.626,24.716C-9.833,22.149,-13.368,18.535,-16.251,14.565C-19.268,10.409,-21.648,5.746,-23.137,0.827C-24.566,-3.89,-25.293,-9.13,-24.108,-13.98C-23.26,-17.456,-21.366,-20.155,-18.284,-21.949C-18.284,-21.949,-10.557,-26.447,-10.557,-26.447C-8.069,-27.895,-5.734,-29.17,-2.724,-29.027C2.008,-28.802,6.352,-26.307,9.919,-23.341C17.888,-16.714,23.752,-6.433,25.04,3.889C25.196,5.139,25.281,6.389,25.281,7.649Z" /></g><g transform="matrix(1,0,0,1,20.559,31.849)"><path fill="#38382d" d="M0.055,-19.187C9.274,-13.864,16.732,-0.953,16.702,9.641C16.672,20.242,9.166,24.513,-0.054,19.19C-9.279,13.863,-16.732,0.957,-16.702,-9.644C-16.672,-20.238,-9.171,-24.514,0.055,-19.187Z"><animate repeatCount="indefinite" attributeName="fill" dur="1s" begin="0s" fill="freeze" values="#38382d; #ffff42; #38382d; #38382d" keyTimes="0; 0.183333; 0.666667; 1" keySplines="0 0 1 1; 0 0 1 1; 0 0 1 1" calcMode="spline" /></path></g><g transform="matrix(1,0,0,1,41.309,34.46)"><path fill="#e2a854" d="M8.525,6.09C8.015,9.82,7.538,12.406,3.238,15.51C3.203,15.538,3.09,15.625,3.015,15.666C1.956,16.376,1.495,16.57,0.345,17.24C-2.035,18.62,-4.425,20.01,-6.805,21.39C-3.415,19.43,-1.775,15.58,-1.265,11.86C-0.275,4.62,-2.645,-2.98,-6.075,-9.29C-9.515,-15.63,0.275,-21.39,3.725,-15.05C7.145,-8.74,9.515,-1.14,8.525,6.09Z" /></g><g transform="matrix(1,0,0,1,92.298,67.69)"><path fill="#f9c269" d="M25.281,7.649C25.294,12.471,23.835,17.708,19.466,20.332C16.921,21.861,8.65,26.597,9.171,26.299C4.514,29.17,-1.315,27.346,-5.626,24.716C-9.833,22.149,-13.368,18.535,-16.251,14.565C-19.268,10.409,-21.648,5.746,-23.137,0.828C-24.566,-3.89,-25.293,-9.13,-24.109,-13.98C-23.26,-17.456,-21.366,-20.155,-18.285,-21.949C-15.709,-23.448,-13.133,-24.946,-10.557,-26.446C-8.07,-27.894,-5.734,-29.17,-2.724,-29.027C2.008,-28.802,6.352,-26.307,9.919,-23.341C17.888,-16.714,23.752,-6.433,25.04,3.889C25.196,5.139,25.281,6.39,25.281,7.649Z" /></g><g transform="matrix(1,0,0,1,87.313,70.119)"><path fill="#ffffac" d="M0.055,-19.187C9.274,-13.864,16.732,-0.953,16.701,9.641C16.672,20.242,9.165,24.513,-0.054,19.19C-9.28,13.863,-16.732,0.957,-16.702,-9.644C-16.672,-20.238,-9.171,-24.514,0.055,-19.187Z" /></g><g transform="matrix(1,0,0,1,108.063,72.73)"><path fill="#e2a854" d="M8.525,6.09C8.015,9.82,7.538,12.406,3.238,15.51C3.203,15.538,3.09,15.625,3.016,15.666C1.956,16.376,1.495,16.57,0.345,17.24C-2.035,18.62,-4.425,20.01,-6.805,21.39C-3.415,19.43,-1.775,15.58,-1.265,11.86C-0.275,4.62,-2.645,-2.98,-6.075,-9.29C-9.515,-15.63,0.275,-21.39,3.725,-15.05C7.145,-8.74,9.515,-1.14,8.525,6.09Z" /></g><g transform="matrix(1,0,0,1,92.298,67.69)"><path fill="#f9c269" d="M25.281,7.649C25.294,12.471,23.835,17.708,19.466,20.332C16.921,21.861,8.65,26.597,9.171,26.299C4.514,29.17,-1.315,27.346,-5.626,24.716C-9.833,22.149,-13.368,18.535,-16.251,14.565C-19.268,10.409,-21.648,5.746,-23.137,0.828C-24.566,-3.89,-25.293,-9.13,-24.109,-13.98C-23.26,-17.456,-21.366,-20.155,-18.285,-21.949C-15.709,-23.448,-13.133,-24.946,-10.557,-26.446C-8.07,-27.894,-5.734,-29.17,-2.724,-29.027C2.008,-28.802,6.352,-26.307,9.919,-23.341C17.888,-16.714,23.752,-6.433,25.04,3.889C25.196,5.139,25.281,6.39,25.281,7.649Z" /></g><g transform="matrix(1,0,0,1,87.313,70.119)"><path fill="#38382d" d="M0.055,-19.187C9.274,-13.864,16.732,-0.953,16.701,9.641C16.672,20.242,9.165,24.513,-0.054,19.19C-9.28,13.863,-16.732,0.957,-16.702,-9.644C-16.672,-20.238,-9.171,-24.514,0.055,-19.187Z"><animate repeatCount="indefinite" attributeName="fill" dur="1s" begin="0s" fill="freeze" values="#38382d; #38382d; #ffff42; #38382d; #38382d" keyTimes="0; 0.25; 0.433333; 0.916667; 1" keySplines="0 0 1 1; 0 0 1 1; 0 0 1 1; 0 0 1 1" calcMode="spline" /></path></g><g transform="matrix(1,0,0,1,108.063,72.73)"><path fill="#e2a854" d="M8.525,6.09C8.015,9.82,7.538,12.406,3.238,15.51C3.203,15.538,3.09,15.625,3.016,15.666C1.956,16.376,1.495,16.57,0.345,17.24C-2.035,18.62,-4.425,20.01,-6.805,21.39C-3.415,19.43,-1.775,15.58,-1.265,11.86C-0.275,4.62,-2.645,-2.98,-6.075,-9.29C-9.515,-15.63,0.275,-21.39,3.725,-15.05C7.145,-8.74,9.515,-1.14,8.525,6.09Z" /></g></g></g></g></svg>